<?xml version="1.0" encoding="utf-8"?>
<!-- Generator: Adobe Illustrator 23.0.2, SVG Export Plug-In . SVG Version: 6.00 Build 0)  -->
<!DOCTYPE svg PUBLIC "-//W3C//DTD SVG 1.1//EN" "http://www.w3.org/Graphics/SVG/1.1/DTD/svg11.dtd" [
	<!ENTITY ns_extend "http://ns.adobe.com/Extensibility/1.0/">
	<!ENTITY ns_ai "http://ns.adobe.com/AdobeIllustrator/10.0/">
	<!ENTITY ns_graphs "http://ns.adobe.com/Graphs/1.0/">
	<!ENTITY ns_vars "http://ns.adobe.com/Variables/1.0/">
	<!ENTITY ns_imrep "http://ns.adobe.com/ImageReplacement/1.0/">
	<!ENTITY ns_sfw "http://ns.adobe.com/SaveForWeb/1.0/">
	<!ENTITY ns_custom "http://ns.adobe.com/GenericCustomNamespace/1.0/">
	<!ENTITY ns_adobe_xpath "http://ns.adobe.com/XPath/1.0/">
]>
<svg version="1.1" id="Layer_1" xmlns:x="&ns_extend;" xmlns:i="&ns_ai;" xmlns:graph="&ns_graphs;"
	 xmlns="http://www.w3.org/2000/svg" xmlns:xlink="http://www.w3.org/1999/xlink" x="0px" y="0px" viewBox="0 0 573.7 61"
	 style="enable-background:new 0 0 573.7 61;" xml:space="preserve">
<style type="text/css">
	.st0{display:none;}
	.st1{display:inline;}
	.st2{fill:#6D6E71;}
	.st3{fill:#9D9FA2;}
	.st4{fill:#F99D1B;}
	.st5{fill:#A9AAAA;}
	.st6{fill:#717071;}
</style>
<metadata>
	<sfw  xmlns="&ns_sfw;">
		<slices></slices>
		<sliceSourceBounds  bottomLeftOrigin="true" height="60.9" width="573.5" x="0.1" y="0"></sliceSourceBounds>
	</sfw>
</metadata>
<g class="st0">
	<g class="st1">
		<path class="st2" d="M244.9,15h-3c0.1-0.4,0.2-0.8,0.3-1.2c0.1-0.7,0.2-1.4,0.3-2.1s0.1-1.5,0.1-2.2V7.4c0-1-0.2-1.7-0.6-2
			c-0.4-0.4-1.1-0.6-2.1-0.6h-15.6c-0.5,0-0.8,0.2-1.1,0.5C223.1,5.6,223,6,223,6.5s0.1,0.9,0.4,1.2c0.2,0.3,0.6,0.5,1.1,0.5h13.5
			c0.5,0,0.7,0.2,0.7,0.7v0.8c0,1.7-0.2,3.5-0.6,5.3h-16.8c-0.5,0-0.8,0.2-1.1,0.5s-0.3,0.7-0.3,1.2c0,0.4,0.1,0.8,0.3,1.2
			c0.2,0.3,0.6,0.5,1.1,0.5h9.8v4.2h-6.8c-0.5,0-0.8,0.2-1.1,0.5s-0.3,0.7-0.3,1.1c0,0.5,0.1,0.9,0.3,1.2c0.2,0.3,0.6,0.5,1.1,0.5
			h13.9c0.5,0,0.7,0.2,0.7,0.7v4.8c0,0.6,0.2,1,0.6,1.3s0.9,0.4,1.4,0.4s1-0.1,1.4-0.4s0.6-0.7,0.6-1.3v-6.2c0-1-0.2-1.6-0.6-2
			c-0.4-0.4-1.1-0.6-2.1-0.6h-5.2v-4.2h9.8c0.5,0,0.8-0.2,1.1-0.5s0.3-0.7,0.3-1.2c0-0.5-0.1-0.9-0.3-1.2
			C245.7,15.2,245.4,15,244.9,15z"/>
		<path class="st2" d="M273.8,12.9h-2.9V5.3c0-0.6-0.2-1-0.6-1.3c-0.4-0.3-0.9-0.4-1.4-0.4c-0.5,0-1,0.1-1.4,0.4
			c-0.4,0.3-0.6,0.7-0.6,1.3v23.9c0,0.6,0.2,1,0.6,1.3s0.9,0.4,1.4,0.4c0.5,0,1-0.1,1.4-0.4c0.4-0.3,0.6-0.7,0.6-1.3V16.3h2.9
			c0.5,0,0.9-0.2,1.1-0.5c0.2-0.3,0.3-0.8,0.3-1.2s-0.1-0.9-0.3-1.2C274.7,13,274.3,12.9,273.8,12.9z"/>
		<path class="st2" d="M259.9,5.8h-9.3c-0.5,0-0.8,0.2-1.1,0.5s-0.3,0.7-0.3,1.2c0,0.5,0.1,0.9,0.3,1.2c0.2,0.3,0.6,0.5,1.1,0.5h7.3
			c0.5,0,0.7,0.2,0.7,0.7v1.8c0,0.6,0,1.2-0.1,1.6c0,0.5-0.2,0.9-0.4,1.4c-0.2,0.4-0.5,0.9-0.9,1.3c-0.4,0.4-0.9,0.9-1.6,1.4
			s-1.5,1.1-2.5,1.8c-1,0.7-2.2,1.4-3.6,2.3c-0.5,0.3-0.7,0.7-0.7,1.2s0.1,0.9,0.4,1.3c0.3,0.4,0.6,0.6,1.1,0.8s0.9,0.1,1.4-0.1
			c2.4-1.5,4.2-2.7,5.7-3.7c1.4-1,2.5-2,3.3-2.9c0.8-0.9,1.3-1.9,1.5-2.8c0.3-1,0.4-2.1,0.4-3.4V8.4c0-1-0.2-1.7-0.6-2
			C261.6,6,260.9,5.8,259.9,5.8z"/>
		<path class="st2" d="M309.5,25h-9.8v-4.8c0.8-0.1,1.5-0.2,2.1-0.4c1.2-0.3,2.3-0.9,3.1-1.5c0.8-0.7,1.5-1.5,2-2.4
			c0.5-1,0.7-2.1,0.7-3.3s-0.2-2.4-0.7-3.3s-1.1-1.8-2-2.4c-0.8-0.7-1.9-1.2-3.1-1.5c-1.2-0.3-2.6-0.5-4.1-0.5
			c-1.5,0-2.9,0.2-4.1,0.5c-1.2,0.3-2.3,0.8-3.1,1.5c-0.8,0.7-1.5,1.5-2,2.4c-0.5,1-0.7,2.1-0.7,3.3s0.2,2.3,0.7,3.3s1.1,1.8,2,2.4
			c0.8,0.7,1.9,1.2,3.1,1.5c0.7,0.2,1.4,0.3,2.1,0.4V25h-9.8c-0.5,0-0.8,0.2-1.1,0.5s-0.3,0.7-0.3,1.2c0,0.5,0.1,0.9,0.3,1.2
			c0.2,0.3,0.6,0.5,1.1,0.5h23.6c0.5,0,0.8-0.2,1.1-0.5c0.2-0.3,0.3-0.7,0.3-1.2c0-0.5-0.1-0.9-0.3-1.2C310.3,25.2,310,25,309.5,25z
			 M293.2,15.7c-0.5-0.4-0.8-0.9-1-1.4c-0.2-0.5-0.3-1.1-0.3-1.8s0.1-1.2,0.3-1.8s0.6-1,1-1.4c0.5-0.4,1.1-0.7,1.8-0.9
			c0.7-0.2,1.6-0.3,2.7-0.3c1,0,1.9,0.1,2.7,0.3c0.7,0.2,1.4,0.5,1.8,0.9c0.5,0.4,0.8,0.9,1,1.4c0.2,0.5,0.3,1.1,0.3,1.8
			c0,0.6-0.1,1.2-0.3,1.8s-0.6,1-1,1.4c-0.5,0.4-1.1,0.7-1.8,0.9c-0.7,0.2-1.6,0.3-2.7,0.3s-1.9-0.1-2.7-0.3
			C294.3,16.4,293.7,16.1,293.2,15.7z"/>
		<path class="st2" d="M335,29.1h-14c-0.5,0-0.7-0.2-0.7-0.7v-3.1c0-0.6-0.2-1-0.6-1.3c-0.4-0.3-0.9-0.4-1.4-0.4
			c-0.5,0-1,0.1-1.4,0.4s-0.6,0.7-0.6,1.3v4.6c0,1,0.2,1.6,0.6,2c0.4,0.4,1.1,0.6,2.1,0.6H335c0.5,0,0.8-0.2,1.1-0.5
			c0.2-0.3,0.3-0.7,0.3-1.2c0-0.5-0.1-0.9-0.3-1.2C335.9,29.3,335.5,29.1,335,29.1z"/>
		<path class="st2" d="M337.9,18.6h-23.6c-0.5,0-0.8,0.2-1.1,0.5s-0.3,0.7-0.3,1.2c0,0.5,0.1,0.9,0.3,1.2c0.2,0.3,0.6,0.5,1.1,0.5
			h23.6c0.5,0,0.8-0.2,1.1-0.5s0.4-0.7,0.4-1.2c0-0.5-0.1-0.9-0.4-1.2S338.4,18.6,337.9,18.6z"/>
		<path class="st2" d="M316.9,12.9c-0.5,0-0.8,0.2-1,0.5s-0.3,0.7-0.3,1.1c0,0.4,0.1,0.8,0.3,1.1c0.2,0.3,0.6,0.5,1,0.5h18.4
			c0.5,0,0.8-0.2,1-0.5s0.3-0.7,0.3-1.1c0-0.4-0.1-0.8-0.3-1.1c-0.2-0.3-0.6-0.5-1-0.5h-2.7V8.1h2.6c0.5,0,0.8-0.2,1-0.5
			c0.2-0.3,0.3-0.7,0.3-1.1s-0.1-0.8-0.3-1.1c-0.2-0.3-0.6-0.5-1-0.5h-18.1c-0.5,0-0.8,0.2-1,0.5s-0.3,0.7-0.3,1.1
			c0,0.4,0.1,0.8,0.3,1.1c0.2,0.3,0.6,0.5,1,0.5h2.6v4.8L316.9,12.9L316.9,12.9z M323.4,8.1h5.4v4.8h-5.4V8.1z"/>
		<path class="st2" d="M363.5,21.9h-16c-0.5,0-0.8,0.2-1.1,0.5s-0.3,0.7-0.3,1.2c0,0.5,0.1,0.9,0.3,1.2s0.6,0.5,1.1,0.5h14
			c0.5,0,0.7,0.2,0.7,0.7v5.3c0,0.6,0.2,1,0.6,1.3s0.9,0.4,1.4,0.4c0.5,0,1-0.1,1.4-0.4s0.6-0.7,0.6-1.3v-6.8c0-1-0.2-1.6-0.6-2
			C365.2,22.1,364.5,21.9,363.5,21.9z"/>
		<path class="st2" d="M365.6,4c-0.4-0.3-0.8-0.4-1.3-0.4S363.4,3.8,363,4c-0.4,0.3-0.6,0.7-0.6,1.2v5.2H360V5.4
			c0-0.5-0.2-0.9-0.6-1.2s-0.8-0.4-1.3-0.4c-0.5,0-0.9,0.1-1.3,0.4c-0.4,0.3-0.6,0.7-0.6,1.2V19c0,0.5,0.2,0.9,0.6,1.2
			c0.4,0.3,0.8,0.4,1.3,0.4c0.5,0,0.9-0.1,1.3-0.4c0.4-0.3,0.6-0.6,0.6-1.2v-5.3h2.5v5.4c0,0.5,0.2,0.9,0.6,1.2
			c0.4,0.3,0.8,0.4,1.3,0.4s0.9-0.1,1.3-0.4c0.4-0.3,0.6-0.6,0.6-1.2V5.2C366.1,4.7,366,4.3,365.6,4z"/>
		<path class="st2" d="M350.8,18.7c0.8-0.4,1.5-0.8,2-1.5s0.9-1.4,1.2-2.2c0.3-0.9,0.4-1.8,0.4-2.9c0-1-0.1-2-0.4-2.8
			c-0.3-0.9-0.7-1.6-1.2-2.3c-0.5-0.6-1.2-1.1-2-1.5S349,5,347.9,5c-1.1,0-2.1,0.2-2.9,0.5s-1.5,0.8-2,1.5c-0.5,0.6-0.9,1.4-1.2,2.3
			c-0.3,0.9-0.4,1.8-0.4,2.8c0,1,0.1,2,0.4,2.9c0.3,0.9,0.6,1.6,1.2,2.2c0.5,0.6,1.2,1.1,2,1.5c0.8,0.4,1.8,0.5,2.9,0.5
			C349,19.2,349.9,19,350.8,18.7z M345.6,14.8c-0.5-0.7-0.7-1.6-0.7-2.7c0-1.1,0.2-2,0.7-2.7c0.5-0.7,1.2-1.1,2.2-1.1
			s1.8,0.4,2.2,1.1c0.5,0.7,0.7,1.6,0.7,2.7s-0.2,2-0.7,2.7c-0.5,0.7-1.2,1.1-2.2,1.1C346.8,15.9,346.1,15.5,345.6,14.8z"/>
		<path class="st2" d="M394,4c-0.4-0.3-0.8-0.4-1.3-0.4s-0.9,0.1-1.3,0.4c-0.4,0.3-0.6,0.7-0.6,1.2v24.2c0,0.5,0.2,0.9,0.6,1.2
			s0.8,0.4,1.3,0.4s0.9-0.1,1.3-0.4c0.4-0.3,0.6-0.6,0.6-1.2V5.2C394.5,4.7,394.4,4.3,394,4z"/>
		<path class="st2" d="M388.3,4.3c-0.4-0.3-0.8-0.4-1.3-0.4c-0.5,0-0.9,0.1-1.3,0.4c-0.4,0.3-0.6,0.6-0.6,1.2v6.3h-2.3
			c-0.5,0-0.8,0.2-1.1,0.5s-0.3,0.7-0.3,1.2c0,0.5,0.1,0.9,0.3,1.2c0.2,0.3,0.6,0.5,1.1,0.5h2.3v12.8c0,0.5,0.2,0.9,0.6,1.2
			c0.4,0.3,0.8,0.4,1.3,0.4c0.5,0,0.9-0.1,1.3-0.4c0.4-0.3,0.6-0.6,0.6-1.2V5.5C388.8,5,388.6,4.6,388.3,4.3z"/>
		<path class="st2" d="M382.1,18.9c-0.5-0.5-1-1.1-1.5-1.7c-0.7-0.8-1.1-1.7-1.4-2.6c-0.3-0.9-0.4-2-0.4-3.2V7c0-0.6-0.2-1-0.6-1.3
			c-0.4-0.3-0.9-0.4-1.4-0.4c-0.5,0-1,0.1-1.4,0.4c-0.4,0.3-0.6,0.7-0.6,1.3v4.5c0,1.3-0.1,2.3-0.4,3.2c-0.3,0.9-0.7,1.8-1.4,2.6
			c-0.5,0.6-1,1.2-1.5,1.8s-1.1,1.2-1.6,1.8c-0.4,0.4-0.5,0.8-0.4,1.3s0.3,0.9,0.6,1.3c0.3,0.3,0.7,0.5,1.2,0.5s0.9-0.1,1.3-0.5
			c0.5-0.5,0.9-1,1.3-1.4c0.4-0.5,0.8-1,1.2-1.4c0.6-0.8,1.1-1.4,1.3-1.8c0.2-0.4,0.4-0.8,0.4-1.2h0c0,0.2,0.1,0.3,0.1,0.5
			s0.2,0.4,0.3,0.6c0.1,0.2,0.3,0.5,0.5,0.8c0.2,0.3,0.5,0.6,0.8,1c0.4,0.5,0.8,0.9,1.2,1.3c0.4,0.4,0.7,0.8,1,1.1
			c0.4,0.4,0.8,0.5,1.3,0.5s0.9-0.2,1.3-0.5c0.3-0.3,0.5-0.7,0.6-1.2c0.1-0.5-0.1-0.9-0.4-1.3C383,20,382.6,19.5,382.1,18.9z"/>
		<path class="st2" d="M423.1,25h-23.6c-0.5,0-0.8,0.2-1.1,0.5s-0.3,0.7-0.3,1.2c0,0.5,0.1,0.9,0.3,1.2c0.2,0.3,0.6,0.5,1.1,0.5
			h23.6c0.5,0,0.8-0.2,1.1-0.5s0.3-0.7,0.3-1.2c0-0.5-0.1-0.9-0.3-1.2S423.6,25,423.1,25z"/>
		<path class="st2" d="M401.5,20.2c0.4,0.2,0.9,0.1,1.3-0.1c1-0.6,2-1.1,2.9-1.7c0.9-0.5,1.8-1.1,2.6-1.6c0.9-0.6,1.6-1.2,2.1-1.7
			c0.5-0.5,0.8-1,0.9-1.4h0c0.1,0.4,0.4,0.8,0.8,1.3c0.5,0.5,1.2,1.1,2.1,1.7c0.9,0.5,1.7,1.1,2.6,1.6s1.9,1.1,2.9,1.7
			c0.4,0.2,0.9,0.3,1.3,0.1c0.5-0.2,0.8-0.5,1-0.8c0.2-0.4,0.3-0.8,0.3-1.3s-0.2-0.9-0.7-1.1c-0.9-0.5-1.8-1-2.7-1.6
			c-0.9-0.5-1.8-1.1-2.8-1.7c-1.1-0.7-1.8-1.4-2.3-2.3s-0.7-1.8-0.7-3V6.7c0-0.6-0.2-1-0.6-1.3S411.9,5,411.4,5s-1,0.1-1.4,0.4
			s-0.6,0.7-0.6,1.3v1.7c0,1.2-0.2,2.2-0.7,3c-0.5,0.8-1.2,1.6-2.3,2.3c-1,0.6-1.9,1.2-2.8,1.7c-0.9,0.5-1.8,1-2.7,1.5
			c-0.4,0.2-0.6,0.6-0.7,1.1c0,0.5,0.1,1,0.3,1.3C400.8,19.7,401.1,20,401.5,20.2z"/>
		<path class="st2" d="M457.7,4.1c-0.4-0.3-0.9-0.4-1.4-0.4c-0.5,0-1,0.1-1.4,0.4c-0.4,0.3-0.6,0.7-0.6,1.3v23.9
			c0,0.6,0.2,1,0.6,1.3c0.4,0.3,0.9,0.4,1.4,0.4c0.5,0,1-0.1,1.4-0.4c0.4-0.3,0.6-0.7,0.6-1.3V5.3C458.3,4.8,458.1,4.3,457.7,4.1z"
			/>
		<path class="st2" d="M451.9,20.8c-0.3-0.3-0.7-0.4-1.1-0.3c-1.5,0.2-3.1,0.4-4.7,0.5c-1.6,0.1-3.5,0.1-5.4,0.1
			c-0.5,0-0.7-0.2-0.7-0.7v-3.1c0-0.5,0.2-0.7,0.7-0.7h6c1,0,1.7-0.2,2.1-0.6c0.4-0.4,0.6-1.1,0.6-2V8.1c0-1-0.2-1.7-0.6-2
			c-0.4-0.4-1.1-0.6-2.1-0.6h-9.3c-0.5,0-0.8,0.2-1.1,0.5c-0.2,0.3-0.3,0.7-0.3,1.2s0.1,0.9,0.3,1.2c0.2,0.3,0.6,0.5,1.1,0.5h7.3
			c0.5,0,0.7,0.2,0.7,0.7v2.9c0,0.5-0.2,0.7-0.7,0.7h-6c-1,0-1.7,0.2-2.1,0.6c-0.4,0.4-0.6,1.1-0.6,2v6c0,1,0.2,1.7,0.6,2
			c0.4,0.4,1.1,0.6,2.1,0.6c1.6,0,3.1,0,4.4,0c1.3,0,2.4-0.1,3.4-0.1c1-0.1,1.9-0.1,2.7-0.2c0.8-0.1,1.5-0.1,2.1-0.2
			c0.5-0.1,0.8-0.3,0.9-0.6c0.2-0.4,0.2-0.8,0.2-1.3C452.4,21.5,452.2,21.1,451.9,20.8z"/>
		<path class="st2" d="M487.8,25H478v-5.1h7.2c0.5,0,0.8-0.2,1-0.5c0.2-0.3,0.3-0.7,0.3-1.2c0-0.5-0.1-0.9-0.3-1.2s-0.6-0.5-1-0.5
			h-2.6V8.8h2.5c0.5,0,0.8-0.2,1-0.5c0.2-0.3,0.3-0.7,0.3-1.2s-0.1-0.8-0.3-1.2s-0.6-0.5-1-0.5h-18.2c-0.5,0-0.8,0.2-1,0.5
			s-0.3,0.7-0.3,1.2s0.1,0.9,0.3,1.2s0.6,0.5,1,0.5h2.5v7.8h-2.6c-0.5,0-0.8,0.2-1,0.5c-0.2,0.3-0.3,0.7-0.3,1.2
			c0,0.5,0.1,0.9,0.3,1.2s0.6,0.5,1,0.5h7.2V25h-9.8c-0.5,0-0.8,0.2-1.1,0.5c-0.2,0.3-0.3,0.7-0.3,1.2c0,0.5,0.1,0.9,0.3,1.2
			c0.2,0.3,0.6,0.5,1.1,0.5h23.6c0.5,0,0.8-0.2,1.1-0.5s0.3-0.7,0.3-1.2c0-0.5-0.1-0.9-0.3-1.2C488.6,25.2,488.2,25,487.8,25z
			 M473.3,8.8h5.4v7.8h-5.4V8.8z"/>
		<path class="st2" d="M506.5,19.2c-0.6-0.5-1.1-1.1-1.8-1.7c-0.4-0.4-0.8-0.9-1.1-1.3c-0.3-0.4-0.5-0.9-0.7-1.3
			c-0.2-0.5-0.3-1-0.4-1.5c-0.1-0.5-0.1-1.1-0.1-1.8V9.2h4.4c0.5,0,0.8-0.2,1.1-0.5s0.3-0.7,0.3-1.2c0-0.5-0.1-0.9-0.3-1.2
			c-0.2-0.3-0.6-0.5-1.1-0.5h-13.1c-0.5,0-0.8,0.2-1.1,0.5s-0.3,0.7-0.3,1.2c0,0.5,0.1,0.9,0.3,1.2c0.2,0.3,0.6,0.5,1.1,0.5h4.6v2.4
			c0,0.7,0,1.3-0.1,1.8c-0.1,0.5-0.2,1-0.4,1.5c-0.2,0.5-0.4,0.9-0.7,1.3s-0.7,0.9-1.1,1.3c-1.1,1.2-2.4,2.4-3.7,3.5
			c-0.4,0.4-0.6,0.8-0.6,1.3s0.2,0.9,0.5,1.3c0.1,0.2,0.3,0.3,0.5,0.4c0.2,0.1,0.4,0.2,0.6,0.3c0.2,0,0.4,0.1,0.7,0
			c0.2,0,0.5-0.1,0.7-0.3c0.6-0.5,1.2-1,1.8-1.6s1.1-1.1,1.7-1.6c0.8-0.8,1.4-1.4,1.6-1.9c0.3-0.4,0.5-0.8,0.5-1.2h0
			c0.1,0.3,0.2,0.6,0.5,1.1c0.3,0.4,0.8,1,1.6,1.9c0.6,0.6,1.1,1.1,1.6,1.6s1,0.9,1.4,1.3c0.4,0.3,0.8,0.5,1.3,0.4s0.8-0.3,1.1-0.6
			c0.3-0.3,0.5-0.7,0.6-1.2c0.1-0.5-0.1-0.9-0.5-1.3C507.6,20.2,507.1,19.7,506.5,19.2z"/>
		<path class="st2" d="M514.5,4.1c-0.4-0.3-0.9-0.4-1.4-0.4c-0.5,0-1,0.1-1.4,0.4c-0.4,0.3-0.6,0.7-0.6,1.3v23.9
			c0,0.6,0.2,1,0.6,1.3c0.4,0.3,0.9,0.4,1.4,0.4c0.5,0,1-0.1,1.4-0.4c0.4-0.3,0.6-0.7,0.6-1.3V5.3C515.1,4.8,514.9,4.3,514.5,4.1z"
			/>
		<path class="st2" d="M543.1,4.1c-0.4-0.3-0.9-0.4-1.4-0.4c-0.5,0-1,0.1-1.4,0.4c-0.4,0.3-0.6,0.7-0.6,1.3v7.5h-3.3
			c-0.5,0-0.9,0.2-1.1,0.5c-0.2,0.3-0.3,0.7-0.3,1.2c0,0.5,0.1,0.9,0.3,1.2c0.2,0.3,0.6,0.5,1.1,0.5h3.3v13c0,0.6,0.2,1,0.6,1.3
			c0.4,0.3,0.9,0.4,1.4,0.4c0.5,0,1-0.1,1.4-0.4c0.4-0.3,0.6-0.7,0.6-1.3V5.3C543.7,4.8,543.5,4.3,543.1,4.1z"/>
		<path class="st2" d="M536.6,20.4c-0.3-0.3-0.7-0.4-1.1-0.3c-1.5,0.2-3.1,0.4-4.7,0.5c-1.6,0.1-3.3,0.1-5.1,0.1
			c-0.5,0-0.7-0.2-0.7-0.7v-3.5h7.2c0.5,0,0.8-0.2,1-0.5c0.2-0.3,0.3-0.7,0.3-1.2s-0.1-0.9-0.3-1.2c-0.2-0.3-0.6-0.5-1-0.5H525V9.7
			c0-0.5,0.2-0.7,0.7-0.7h7.7c0.5,0,0.9-0.2,1.1-0.5c0.2-0.3,0.3-0.7,0.3-1.2s-0.1-0.8-0.3-1.2c-0.2-0.3-0.6-0.5-1.1-0.5h-9.7
			c-1,0-1.7,0.2-2.1,0.6c-0.4,0.4-0.6,1-0.6,2v13.3c0,1,0.2,1.6,0.6,2c0.4,0.4,1.1,0.6,2.1,0.6c1.5,0,2.9,0,4.2,0
			c1.2,0,2.4-0.1,3.3-0.1c1-0.1,1.9-0.1,2.7-0.2c0.8-0.1,1.5-0.1,2.1-0.2c0.5-0.1,0.8-0.3,0.9-0.6c0.2-0.4,0.2-0.8,0.2-1.2
			C537.1,21,536.9,20.7,536.6,20.4z"/>
		<path class="st2" d="M571.3,4.1c-0.4-0.3-0.9-0.4-1.4-0.4c-0.5,0-1,0.1-1.4,0.4c-0.4,0.3-0.6,0.7-0.6,1.3v23.9
			c0,0.6,0.2,1,0.6,1.3c0.4,0.3,0.9,0.4,1.4,0.4c0.5,0,1-0.1,1.4-0.4c0.4-0.3,0.6-0.7,0.6-1.3V5.3C571.9,4.8,571.7,4.3,571.3,4.1z"
			/>
		<path class="st2" d="M565.5,20.8c-0.3-0.3-0.7-0.4-1.1-0.3c-1.5,0.2-3.1,0.4-4.8,0.5c-1.7,0.1-3.4,0.1-5.4,0.1
			c-0.5,0-0.7-0.2-0.7-0.7v-3.1c0-0.5,0.2-0.7,0.7-0.7h6c1,0,1.7-0.2,2.1-0.6s0.6-1.1,0.6-2V8.1c0-1-0.2-1.7-0.6-2
			c-0.4-0.4-1.1-0.6-2.1-0.6H551c-0.5,0-0.8,0.2-1.1,0.5c-0.2,0.3-0.3,0.7-0.3,1.2s0.1,0.9,0.3,1.2c0.2,0.3,0.6,0.5,1.1,0.5h7.3
			c0.5,0,0.7,0.2,0.7,0.7v2.9c0,0.5-0.2,0.7-0.7,0.7h-6c-1,0-1.7,0.2-2.1,0.6c-0.4,0.4-0.6,1.1-0.6,2v6c0,1,0.2,1.7,0.6,2
			s1.1,0.6,2.1,0.6c1.6,0,3.1,0,4.3,0c1.3,0,2.4-0.1,3.4-0.1c1-0.1,1.9-0.1,2.7-0.2c0.8-0.1,1.5-0.1,2.2-0.2
			c0.5-0.1,0.8-0.3,0.9-0.6c0.2-0.4,0.2-0.8,0.2-1.3C566,21.5,565.8,21.1,565.5,20.8z"/>
	</g>
	<g class="st1">
		<polygon class="st3" points="238.1,36.9 234,36.9 226.8,44.7 226.8,36.9 223.6,36.9 223.6,55.3 226.8,55.3 226.8,48.9 228.4,47.3 
			234.3,55.3 238.4,55.3 230.6,45 		"/>
		<path class="st3" d="M244.3,40.9c-1.9,0-3.5,0.6-4.7,1.7c-1.1,1.1-1.7,2.8-1.7,4.8v1.7c0,2,0.6,3.7,1.7,4.8s2.7,1.7,4.7,1.7
			s3.5-0.6,4.7-1.7c1.1-1.1,1.7-2.8,1.7-4.8v-1.7c0-2-0.6-3.7-1.7-4.8C247.9,41.5,246.3,40.9,244.3,40.9z M241.1,47.6
			c0-1.3,0.3-2.3,0.9-2.9s1.4-0.9,2.3-0.9c1,0,1.7,0.3,2.3,0.9s0.9,1.6,0.9,2.9v1.3c0,1.3-0.3,2.3-0.9,2.9c-0.6,0.6-1.4,0.9-2.3,0.9
			c-1,0-1.7-0.3-2.3-0.9s-0.9-1.6-0.9-2.9V47.6z"/>
		<path class="st3" d="M259.8,40.9c-1,0-1.9,0.2-2.6,0.7c-0.4,0.2-0.7,0.5-1,0.8v-1.3h-3.1v14.2h3.2v-8.2c0-0.5,0.1-0.9,0.2-1.3
			s0.4-0.7,0.6-1c0.3-0.3,0.6-0.5,0.9-0.6c0.4-0.2,0.7-0.2,1.1-0.2c0.3,0,0.6,0,0.8,0.1c0.2,0,0.5,0.1,0.7,0.2l0.4,0.2l1-3.1
			l-0.4-0.1C261,41,260.4,40.9,259.8,40.9z"/>
		<path class="st3" d="M268.7,40.9c-0.9,0-1.7,0.1-2.4,0.4c-0.8,0.3-1.4,0.7-2,1.3s-1,1.3-1.3,2.1c-0.3,0.8-0.5,1.8-0.5,2.8V49
			c0,1.1,0.2,2.1,0.5,2.9c0.3,0.8,0.8,1.5,1.4,2.1s1.3,0.9,2,1.2c0.8,0.3,1.6,0.4,2.4,0.4c1.3,0,2.3-0.2,3.2-0.5
			c0.9-0.3,1.6-0.7,2.2-1.1l0.3-0.2l-1.4-2.5l-0.4,0.2c-0.5,0.4-1.1,0.6-1.7,0.8c-0.6,0.2-1.3,0.3-2.1,0.3c-1,0-1.8-0.3-2.4-0.9
			c-0.5-0.5-0.8-1.3-0.9-2.3h9v-2.2c0-2-0.5-3.6-1.6-4.7C272,41.5,270.5,40.9,268.7,40.9z M268.7,43.7c0.9,0,1.6,0.3,2.1,0.8
			c0.5,0.5,0.8,1.3,0.8,2.2v0.1h-6c0-0.4,0.1-0.8,0.2-1.2c0.1-0.4,0.4-0.7,0.6-1c0.3-0.3,0.6-0.5,1-0.6
			C267.9,43.8,268.3,43.7,268.7,43.7z"/>
		<path class="st3" d="M286.2,42.1c-0.5-0.4-1.1-0.7-1.8-0.9c-0.7-0.2-1.4-0.3-2.2-0.3c-1.1,0-2.1,0.2-3,0.5
			c-0.8,0.3-1.6,0.8-2.3,1.2l-0.3,0.2l1.6,2.4l0.3-0.2c0.6-0.4,1.2-0.7,1.7-1c0.5-0.2,1.2-0.3,1.9-0.3c0.9,0,1.5,0.2,1.9,0.5
			c0.4,0.4,0.5,0.9,0.5,1.7v0.4h-3c-1.8,0-3.2,0.4-4,1.2c-0.9,0.8-1.3,1.8-1.3,3.1v0.7c0,1.3,0.5,2.3,1.3,3.1c0.9,0.7,2,1.1,3.5,1.1
			c0.6,0,1.2-0.1,1.6-0.2c0.5-0.1,0.9-0.3,1.3-0.5c0.3-0.1,0.5-0.3,0.7-0.5v1h3.1v-9.8c0-0.7-0.1-1.4-0.4-2
			C287.1,43,286.7,42.5,286.2,42.1z M279.5,51.2v-0.3c0-0.5,0.2-0.9,0.5-1.2c0.3-0.3,0.9-0.4,1.8-0.4h3v0.9c0,0.5-0.1,0.8-0.2,1.1
			c-0.1,0.3-0.3,0.5-0.6,0.7c-0.3,0.3-0.7,0.4-1.1,0.6c-0.4,0.1-0.9,0.2-1.4,0.2c-0.6,0-1-0.1-1.4-0.4
			C279.6,52.1,279.5,51.8,279.5,51.2z"/>
		<path class="st3" d="M309.4,38.7c-0.7-0.7-1.5-1.2-2.4-1.6c-0.9-0.3-2-0.5-3-0.5s-2.1,0.2-3,0.5c-0.9,0.3-1.8,0.9-2.4,1.6
			c-0.7,0.7-1.2,1.6-1.6,2.6c-0.4,1-0.5,2.2-0.5,3.5v2.7c0,1.3,0.2,2.5,0.5,3.5c0.4,1,0.9,1.9,1.6,2.6c0.7,0.7,1.5,1.2,2.4,1.5
			c0.9,0.3,1.9,0.5,3,0.5c1.1,0,2.1-0.2,3-0.5c0.9-0.3,1.8-0.9,2.4-1.5s1.2-1.6,1.6-2.6c0.4-1,0.5-2.2,0.5-3.5v-2.7
			c0-1.3-0.2-2.5-0.5-3.5C310.6,40.2,310,39.4,309.4,38.7z M303.9,52.6c-0.6,0-1.2-0.1-1.8-0.3c-0.5-0.2-1-0.5-1.4-0.9
			c-0.4-0.4-0.7-1-0.9-1.7c-0.2-0.7-0.3-1.6-0.3-2.5V45c0-1,0.1-1.8,0.3-2.5c0.2-0.7,0.5-1.3,0.9-1.7c0.4-0.4,0.8-0.7,1.4-0.9
			c0.5-0.2,1.1-0.3,1.8-0.3c0.6,0,1.2,0.1,1.8,0.3c0.5,0.2,1,0.5,1.4,0.9c0.4,0.4,0.7,1,0.9,1.7c0.2,0.7,0.3,1.6,0.3,2.5v2.1
			c0,1-0.1,1.8-0.3,2.5c-0.2,0.7-0.5,1.3-0.9,1.7c-0.4,0.4-0.8,0.7-1.4,0.9C305.1,52.5,304.5,52.6,303.9,52.6z"/>
		<path class="st3" d="M320.7,40.9c-0.9,0-1.7,0.2-2.4,0.5c-0.4,0.2-0.8,0.4-1.1,0.7v-0.9h-3.1v19.5h3.2v-6.2
			c0.2,0.2,0.5,0.3,0.7,0.5c0.7,0.4,1.5,0.6,2.6,0.6c0.9,0,1.6-0.1,2.3-0.4s1.3-0.7,1.8-1.2c0.5-0.5,0.9-1.2,1.2-1.9
			c0.3-0.8,0.4-1.6,0.4-2.6V47c0-1.9-0.5-3.4-1.4-4.5C324,41.5,322.5,40.9,320.7,40.9z M320.4,43.8c0.9,0,1.6,0.3,2.1,0.9
			c0.5,0.6,0.8,1.5,0.8,2.7V49c0,1.2-0.3,2.1-0.8,2.7c-0.5,0.6-1.2,0.9-2.1,0.9c-0.5,0-0.9-0.1-1.3-0.2c-0.4-0.2-0.7-0.4-1-0.6
			c-0.3-0.2-0.5-0.5-0.6-0.8c-0.1-0.3-0.2-0.6-0.2-0.9v-3.4c0-0.5,0.1-0.9,0.3-1.3c0.2-0.4,0.4-0.7,0.7-0.9c0.3-0.3,0.6-0.5,1-0.6
			C319.5,43.8,320,43.8,320.4,43.8z"/>
		<path class="st3" d="M334.2,40.9c-0.9,0-1.7,0.1-2.5,0.4s-1.4,0.7-2,1.3s-1,1.3-1.3,2.1c-0.3,0.8-0.5,1.8-0.5,2.8V49
			c0,1.1,0.2,2.1,0.5,2.9c0.3,0.8,0.8,1.5,1.4,2.1s1.2,0.9,2,1.2c0.8,0.3,1.6,0.4,2.4,0.4c1.3,0,2.3-0.2,3.2-0.5
			c0.9-0.3,1.6-0.7,2.2-1.1l0.3-0.2l-1.4-2.5l-0.4,0.2c-0.5,0.4-1.1,0.6-1.7,0.8s-1.3,0.3-2.1,0.3c-1,0-1.8-0.3-2.4-0.9
			c-0.5-0.5-0.8-1.3-0.9-2.3h9v-2.2c0-2-0.5-3.6-1.6-4.7C337.5,41.5,336,40.9,334.2,40.9z M334.2,43.7c0.9,0,1.6,0.3,2.1,0.8
			c0.5,0.5,0.8,1.3,0.8,2.2v0.1h-6c0-0.4,0.1-0.8,0.2-1.2c0.1-0.4,0.4-0.7,0.6-1c0.3-0.3,0.6-0.5,1-0.6
			C333.4,43.8,333.8,43.7,334.2,43.7z"/>
		<path class="st3" d="M352.9,42.2c-0.5-0.4-1-0.8-1.6-1c-0.6-0.2-1.3-0.3-2-0.3c-1,0-1.9,0.2-2.6,0.5c-0.4,0.2-0.8,0.5-1.1,0.8v-1
			h-3.1v14.2h3.2v-8.7c0-0.5,0.1-0.9,0.3-1.2s0.4-0.7,0.7-0.9s0.6-0.4,1-0.5c0.4-0.1,0.7-0.2,1.1-0.2c0.9,0,1.5,0.2,1.9,0.6
			s0.6,1.2,0.6,2.2v8.7h3.2v-9.3c0-0.8-0.1-1.6-0.4-2.3C353.7,43.2,353.4,42.6,352.9,42.2z"/>
		<path class="st3" d="M368.7,36.9l-6.9,18.5h3.3l1.9-5.2h6.2l1.9,5.2h3.4l-6.9-18.5C371.6,36.9,368.7,36.9,368.7,36.9z M368,47.3
			l1.3-3.6c0.1-0.4,0.2-0.7,0.3-1l0.3-0.8c0.1-0.2,0.1-0.4,0.2-0.6l0.2,0.6c0.1,0.3,0.2,0.5,0.3,0.8l0.3,0.9l1.3,3.6L368,47.3
			L368,47.3z"/>
		<path class="st3" d="M388.8,51.5c-0.4,0.3-1,0.6-1.5,0.8c-0.5,0.2-1.2,0.3-2.1,0.3c-0.4,0-0.8-0.1-1.2-0.2c-0.4-0.1-0.7-0.3-1-0.6
			c-0.3-0.3-0.5-0.7-0.7-1.1c-0.2-0.5-0.3-1-0.3-1.7v-1.7c0-0.6,0.1-1.2,0.3-1.6c0.2-0.4,0.4-0.8,0.7-1.1c0.3-0.3,0.6-0.5,0.9-0.6
			c0.4-0.1,0.8-0.2,1.1-0.2c0.6,0,1.2,0.1,1.7,0.2c0.5,0.1,1,0.4,1.6,0.9l0.3,0.3l1.5-2.4l-0.3-0.2c-0.6-0.5-1.3-0.8-2-1.1
			c-0.8-0.3-1.7-0.4-2.9-0.4c-0.9,0-1.8,0.2-2.5,0.4c-0.8,0.3-1.4,0.7-2,1.3c-0.5,0.5-1,1.2-1.3,2c-0.3,0.8-0.4,1.7-0.4,2.7V49
			c0,2,0.5,3.6,1.6,4.8c1.1,1.2,2.6,1.8,4.6,1.8c1.3,0,2.4-0.2,3.2-0.5c0.8-0.3,1.5-0.7,2-1.1l0.3-0.2l-1.6-2.5L388.8,51.5z"/>
		<path class="st3" d="M401.3,51.5c-0.4,0.3-0.9,0.6-1.5,0.8c-0.5,0.2-1.2,0.3-2,0.3c-0.4,0-0.8-0.1-1.2-0.2c-0.4-0.1-0.7-0.3-1-0.6
			s-0.5-0.7-0.7-1.1c-0.2-0.5-0.3-1-0.3-1.7v-1.7c0-0.6,0.1-1.2,0.3-1.6c0.2-0.4,0.4-0.8,0.7-1.1c0.3-0.3,0.6-0.5,0.9-0.6
			c0.4-0.1,0.8-0.2,1.1-0.2c0.6,0,1.2,0.1,1.7,0.2c0.5,0.1,1,0.4,1.6,0.9l0.3,0.3l1.5-2.4l-0.3-0.2c-0.6-0.5-1.3-0.8-2-1.1
			c-0.8-0.3-1.7-0.4-2.9-0.4c-0.9,0-1.8,0.2-2.5,0.4c-0.8,0.3-1.4,0.7-2,1.3c-0.5,0.5-1,1.2-1.3,2c-0.3,0.8-0.4,1.7-0.4,2.7V49
			c0,2,0.5,3.6,1.6,4.8c1.1,1.2,2.6,1.8,4.6,1.8c1.3,0,2.4-0.2,3.2-0.5c0.8-0.3,1.5-0.7,2-1.1l0.3-0.2l-1.6-2.5L401.3,51.5z"/>
		<path class="st3" d="M410.2,40.9c-0.9,0-1.7,0.1-2.5,0.4s-1.4,0.7-2,1.3c-0.5,0.5-1,1.3-1.3,2.1c-0.3,0.8-0.5,1.8-0.5,2.8V49
			c0,1.1,0.2,2.1,0.5,2.9c0.3,0.8,0.8,1.5,1.4,2.1s1.3,0.9,2,1.2c0.8,0.3,1.6,0.4,2.5,0.4c1.3,0,2.3-0.2,3.2-0.5s1.6-0.7,2.2-1.1
			l0.3-0.2l-1.4-2.5l-0.3,0.2c-0.5,0.4-1.1,0.6-1.7,0.8s-1.3,0.3-2.1,0.3c-1,0-1.8-0.3-2.4-0.9c-0.5-0.5-0.8-1.3-0.9-2.3h9v-2.2
			c0-2-0.5-3.6-1.6-4.7C413.5,41.5,412,40.9,410.2,40.9z M410.2,43.7c0.9,0,1.6,0.3,2.1,0.8s0.8,1.3,0.8,2.2v0.1h-6
			c0-0.4,0.1-0.8,0.2-1.2c0.1-0.4,0.4-0.7,0.6-1c0.3-0.3,0.6-0.5,1-0.6C409.3,43.8,409.7,43.7,410.2,43.7z"/>
		<path class="st3" d="M427.4,48c-0.4-0.3-1-0.6-1.6-0.9c-0.6-0.2-1.4-0.4-2.2-0.5c-1-0.2-1.7-0.4-2.1-0.6c-0.3-0.2-0.5-0.5-0.5-0.8
			V45c0-0.3,0.2-0.6,0.5-0.8c0.3-0.2,0.8-0.4,1.9-0.4c0.6,0,1.3,0.1,1.8,0.3c0.6,0.2,1.1,0.4,1.5,0.7L427,45l1.5-2.5l-0.3-0.2
			c-0.7-0.5-1.5-0.9-2.3-1.1c-0.8-0.2-1.7-0.3-2.7-0.3c-0.9,0-1.7,0.1-2.4,0.3c-0.7,0.2-1.2,0.5-1.7,0.9c-0.5,0.4-0.8,0.8-1,1.3
			c-0.2,0.5-0.3,1-0.3,1.5v0.3c0,0.7,0.1,1.2,0.4,1.7s0.6,0.9,1,1.2c0.4,0.3,0.9,0.6,1.5,0.8c0.6,0.2,1.3,0.4,2,0.5
			c0.6,0.1,1.1,0.3,1.5,0.4c0.4,0.1,0.6,0.2,0.9,0.4c0.2,0.1,0.3,0.2,0.3,0.3c0.1,0.2,0.1,0.3,0.1,0.6v0.2c0,0.4-0.2,0.7-0.5,1
			c-0.4,0.3-1,0.4-1.9,0.4c-0.8,0-1.5-0.1-2.1-0.4c-0.7-0.3-1.3-0.6-1.9-1l-0.3-0.2l-1.5,2.5l0.3,0.2c0.7,0.5,1.5,0.9,2.5,1.2
			c1,0.3,2,0.5,3.2,0.5c0.8,0,1.6-0.1,2.2-0.3c0.7-0.2,1.3-0.5,1.7-0.9c0.5-0.4,0.9-0.8,1.1-1.3c0.3-0.5,0.4-1.1,0.4-1.7v-0.3
			c0-0.7-0.1-1.3-0.3-1.8C428.1,48.8,427.8,48.4,427.4,48z"/>
		<path class="st3" d="M439.6,48c-0.4-0.3-1-0.6-1.6-0.9c-0.6-0.2-1.4-0.4-2.2-0.5c-1-0.2-1.7-0.4-2.1-0.6c-0.3-0.2-0.5-0.5-0.5-0.8
			V45c0-0.3,0.1-0.6,0.5-0.8c0.3-0.2,0.8-0.4,1.9-0.4c0.6,0,1.3,0.1,1.8,0.3c0.6,0.2,1.1,0.4,1.5,0.7l0.3,0.3l1.5-2.5l-0.3-0.2
			c-0.7-0.5-1.5-0.9-2.3-1.1c-0.8-0.2-1.7-0.3-2.7-0.3c-0.9,0-1.7,0.1-2.4,0.3c-0.7,0.2-1.2,0.5-1.7,0.9c-0.5,0.4-0.8,0.8-1,1.3
			c-0.2,0.5-0.3,1-0.3,1.5v0.3c0,0.7,0.1,1.2,0.3,1.7c0.2,0.5,0.6,0.9,1,1.2c0.4,0.3,1,0.6,1.5,0.8c0.6,0.2,1.3,0.4,2,0.5
			c0.6,0.1,1.1,0.3,1.5,0.4c0.4,0.1,0.6,0.2,0.8,0.4c0.2,0.1,0.3,0.2,0.3,0.3c0.1,0.2,0.1,0.3,0.1,0.6v0.2c0,0.4-0.2,0.7-0.6,1
			c-0.4,0.3-1,0.4-1.9,0.4c-0.8,0-1.5-0.1-2.1-0.4c-0.7-0.3-1.3-0.6-1.9-1l-0.3-0.2l-1.5,2.5l0.3,0.2c0.7,0.5,1.5,0.9,2.5,1.2
			c1,0.3,2,0.5,3.2,0.5c0.8,0,1.6-0.1,2.2-0.3c0.7-0.2,1.3-0.5,1.7-0.9c0.5-0.4,0.9-0.8,1.1-1.3c0.3-0.5,0.4-1.1,0.4-1.7v-0.3
			c0-0.7-0.1-1.3-0.3-1.8C440.4,48.8,440,48.4,439.6,48z"/>
		<path class="st3" d="M461.2,45.6c0.6-0.8,0.9-1.8,0.9-2.9v-0.6c0-0.8-0.1-1.5-0.4-2.1c-0.3-0.6-0.7-1.2-1.2-1.7s-1.1-0.8-1.9-1.1
			c-0.7-0.3-1.6-0.4-2.5-0.4h-6.8v18.5h3.2V48h3.7l3.2,7.4h3.5l-3.6-8C460.1,46.9,460.7,46.3,461.2,45.6z M452.4,39.7h3.3
			c1.1,0,2,0.2,2.5,0.7c0.5,0.4,0.7,1,0.7,1.8v0.5c0,0.8-0.2,1.3-0.7,1.8c-0.5,0.5-1.4,0.7-2.7,0.7h-3L452.4,39.7L452.4,39.7z"/>
		<path class="st3" d="M470.4,40.9c-0.9,0-1.7,0.1-2.4,0.4c-0.8,0.3-1.4,0.7-2,1.3c-0.5,0.5-1,1.3-1.3,2.1c-0.3,0.8-0.5,1.8-0.5,2.8
			V49c0,1.1,0.2,2.1,0.5,2.9c0.3,0.8,0.8,1.5,1.4,2.1s1.3,0.9,2,1.2c0.8,0.3,1.6,0.4,2.5,0.4c1.3,0,2.3-0.2,3.2-0.5
			c0.9-0.3,1.6-0.7,2.2-1.1l0.3-0.2l-1.4-2.5l-0.4,0.2c-0.5,0.4-1.1,0.6-1.7,0.8c-0.6,0.2-1.3,0.3-2.1,0.3c-1,0-1.8-0.3-2.4-0.9
			c-0.5-0.5-0.8-1.3-0.9-2.3h9v-2.2c0-2-0.5-3.6-1.6-4.7C473.7,41.5,472.3,40.9,470.4,40.9z M470.4,43.7c0.9,0,1.6,0.3,2.1,0.8
			c0.5,0.5,0.8,1.3,0.8,2.2v0.1h-6c0-0.4,0.1-0.8,0.2-1.2c0.1-0.4,0.4-0.7,0.6-1c0.3-0.3,0.6-0.5,1-0.6
			C469.6,43.8,470,43.7,470.4,43.7z"/>
		<path class="st3" d="M485.4,40.9c-0.8,0-1.7,0.2-2.4,0.5c-0.4,0.2-0.8,0.4-1.1,0.7v-0.9h-3.1v19.5h3.2v-6.2
			c0.2,0.2,0.5,0.3,0.7,0.5c0.7,0.4,1.5,0.6,2.6,0.6c0.9,0,1.6-0.1,2.3-0.4s1.3-0.7,1.8-1.2c0.5-0.5,0.9-1.2,1.2-1.9
			c0.3-0.8,0.4-1.6,0.4-2.6V47c0-1.9-0.5-3.4-1.4-4.5C488.6,41.5,487.2,40.9,485.4,40.9z M485.1,43.8c0.9,0,1.6,0.3,2.1,0.9
			c0.5,0.6,0.8,1.5,0.8,2.7V49c0,1.2-0.3,2.1-0.8,2.7c-0.5,0.6-1.2,0.9-2.1,0.9c-0.5,0-0.9-0.1-1.3-0.2c-0.4-0.2-0.7-0.4-1-0.6
			c-0.3-0.2-0.5-0.5-0.6-0.8c-0.1-0.3-0.2-0.6-0.2-0.9v-3.4c0-0.5,0.1-0.9,0.3-1.3c0.2-0.4,0.4-0.7,0.7-0.9c0.3-0.3,0.6-0.5,1-0.6
			C484.2,43.8,484.6,43.8,485.1,43.8z"/>
		<path class="st3" d="M499.1,40.9c-1.9,0-3.5,0.6-4.7,1.7c-1.1,1.1-1.7,2.8-1.7,4.8v1.7c0,2,0.6,3.7,1.7,4.8s2.7,1.7,4.7,1.7
			s3.5-0.6,4.7-1.7c1.1-1.1,1.7-2.8,1.7-4.8v-1.7c0-2-0.6-3.7-1.7-4.8C502.6,41.5,501.1,40.9,499.1,40.9z M495.9,47.6
			c0-1.3,0.3-2.3,0.9-2.9c0.6-0.6,1.4-0.9,2.3-0.9c1,0,1.7,0.3,2.3,0.9c0.6,0.6,0.9,1.6,0.9,2.9v1.3c0,1.3-0.3,2.3-0.9,2.9
			c-0.6,0.6-1.4,0.9-2.3,0.9c-1,0-1.7-0.3-2.3-0.9s-0.9-1.6-0.9-2.9V47.6z"/>
		<path class="st3" d="M516.7,48c-0.4-0.3-1-0.6-1.6-0.9c-0.6-0.2-1.4-0.4-2.2-0.5c-1-0.2-1.7-0.4-2.1-0.6c-0.3-0.2-0.5-0.5-0.5-0.8
			V45c0-0.3,0.1-0.6,0.5-0.8c0.3-0.2,0.8-0.4,1.9-0.4c0.7,0,1.3,0.1,1.8,0.3c0.6,0.2,1.1,0.4,1.5,0.7l0.3,0.3l1.5-2.5l-0.3-0.2
			c-0.7-0.5-1.5-0.9-2.3-1.1c-0.8-0.2-1.7-0.3-2.7-0.3c-0.9,0-1.7,0.1-2.4,0.3c-0.7,0.2-1.2,0.5-1.7,0.9c-0.5,0.4-0.8,0.8-1,1.3
			c-0.2,0.5-0.3,1-0.3,1.5v0.3c0,0.7,0.1,1.2,0.4,1.7s0.6,0.9,1,1.2c0.4,0.3,0.9,0.6,1.5,0.8c0.6,0.2,1.3,0.4,2,0.5
			c0.6,0.1,1.1,0.3,1.5,0.4c0.3,0.1,0.6,0.2,0.8,0.4c0.2,0.1,0.3,0.2,0.3,0.3c0.1,0.2,0.1,0.3,0.1,0.6v0.2c0,0.4-0.2,0.7-0.6,1
			c-0.4,0.3-1,0.4-1.9,0.4c-0.8,0-1.5-0.1-2.1-0.4c-0.7-0.3-1.3-0.6-1.9-1l-0.3-0.2l-1.5,2.5l0.3,0.2c0.7,0.5,1.5,0.9,2.5,1.2
			c1,0.3,2,0.5,3.2,0.5c0.8,0,1.6-0.1,2.2-0.3c0.7-0.2,1.3-0.5,1.7-0.9c0.5-0.4,0.9-0.8,1.1-1.3s0.4-1.1,0.4-1.7v-0.3
			c0-0.7-0.1-1.3-0.3-1.8C517.5,48.8,517.1,48.4,516.7,48z"/>
		<rect x="520.1" y="36.3" class="st3" width="3.3" height="3.4"/>
		<rect x="520.2" y="41.1" class="st3" width="3.2" height="14.2"/>
		<path class="st3" d="M533.4,52.4c-0.5,0.2-1.1,0.3-1.6,0.3c-0.2,0-0.4,0-0.6-0.1c-0.2,0-0.3-0.1-0.4-0.2c-0.1-0.1-0.2-0.2-0.2-0.4
			c-0.1-0.2-0.1-0.5-0.1-0.9V44h3.5v-2.8h-3.5v-3.4h-3.2v3.4h-2.2V44h2.2v7.3c0,1.5,0.3,2.5,1,3.3c0.7,0.7,1.7,1.1,3.1,1.1
			c0.5,0,1,0,1.5-0.1c0.5-0.1,0.9-0.2,1.2-0.3l0.3-0.1l-0.5-2.7L533.4,52.4z"/>
		<path class="st3" d="M541.7,40.9c-2,0-3.5,0.6-4.7,1.7c-1.1,1.1-1.7,2.8-1.7,4.8v1.7c0,2,0.6,3.7,1.7,4.8c1.1,1.1,2.7,1.7,4.7,1.7
			c2,0,3.5-0.6,4.7-1.7c1.1-1.1,1.7-2.8,1.7-4.8v-1.7c0-2-0.6-3.7-1.7-4.8C545.2,41.5,543.7,40.9,541.7,40.9z M538.5,47.6
			c0-1.3,0.3-2.3,0.9-2.9s1.3-0.9,2.3-0.9c1,0,1.7,0.3,2.3,0.9s0.9,1.6,0.9,2.9v1.3c0,1.3-0.3,2.3-0.9,2.9c-0.6,0.6-1.3,0.9-2.3,0.9
			s-1.7-0.3-2.3-0.9s-0.9-1.6-0.9-2.9V47.6z"/>
		<path class="st3" d="M557.1,40.9c-1,0-1.9,0.2-2.6,0.7c-0.3,0.2-0.7,0.5-1,0.8v-1.3h-3.1v14.2h3.2v-8.2c0-0.5,0.1-0.9,0.2-1.3
			s0.4-0.7,0.6-1c0.3-0.3,0.6-0.5,0.9-0.6c0.3-0.2,0.7-0.2,1.1-0.2c0.3,0,0.6,0,0.8,0.1c0.2,0,0.5,0.1,0.7,0.2l0.4,0.2l1-3.1
			l-0.4-0.1C558.4,41,557.8,40.9,557.1,40.9z"/>
		<polygon class="st3" points="570.2,41.1 566.9,51.2 563.6,41.1 560.2,41.1 565.2,55.2 563.4,60 566.3,61 573.6,41.1 		"/>
	</g>
</g>
<g>
	<path d="M21,26.3l21.9,28.6H30.8l-16.2-22l-5,5.2v16.8H0.1V3.8h9.5v23.4L30.8,3.8h11L21,26.3z"/>
	<path d="M151.4,54.9h-10.3l-5.2-14h-18.1l-5.3,14h-9.8l19.9-51.1h8.6L151.4,54.9z M120.6,33.3h12.6l-3.6-10.4
		c-0.6-1.7-1.1-3.1-1.5-4.3c-0.4-1.2-0.8-2.4-1.2-3.6c-0.2,0.7-0.4,1.4-0.6,1.9c-0.2,0.6-0.4,1.1-0.6,1.7s-0.4,1.2-0.6,1.9
		c-0.2,0.7-0.5,1.4-0.9,2.3L120.6,33.3z"/>
	<path d="M179.9,34.4H170v20.5h-9.5V3.8h19.3c2.8,0,5.3,0.3,7.4,1.1s4,1.7,5.4,2.9c1.5,1.2,2.6,2.7,3.4,4.4c0.8,1.7,1.1,3.6,1.1,5.6
		v2.6c0,2.7-0.7,5.1-2.1,7.3c-1.4,2.1-3.5,3.8-6.3,5c1.8,3.7,3.5,7.4,5.3,11.1s3.5,7.4,5.3,11.1h-10.4L179.9,34.4z M170,11.4v15.5
		h7.8c3.7,0,6.2-0.6,7.7-1.8c1.5-1.2,2.2-2.8,2.2-4.8v-2.1c0-2-0.7-3.6-2.1-4.9c-1.4-1.3-3.7-1.9-7-1.9
		C178.5,11.4,170,11.4,170,11.4z"/>
	<g>
		<path class="st4" d="M71.2,0.1c-16,0-28.9,13-28.9,28.9S55.3,58,71.2,58s28.9-13,28.9-28.9C100.2,13.1,87.2,0.1,71.2,0.1z
			 M71.3,49.1c-11,0-20-9-20-20s9-20,20-20s20,9,20,20S82.3,49.1,71.3,49.1z"/>
		<path class="st4" d="M71.3,17.6c-6.3,0-11.4,5.1-11.4,11.4c0,5.1,3.4,9.6,8.3,11v6.3h6.4v-6.3c4.8-1.4,8.2-5.9,8.2-11
			C82.7,22.7,77.6,17.6,71.3,17.6z M67.7,29c0-2,1.6-3.6,3.6-3.6c2,0,3.6,1.6,3.6,3.6s-1.6,3.6-3.6,3.6C69.3,32.6,67.7,31,67.7,29z"
			/>
	</g>
</g>
<g>
	<g>
		<path class="st5" d="M226.5,49.8l5.1,7h-2.8l-3.8-5.4l-1.2,1.3v4.1h-2.2V44.3h2.2V50l5-5.8h2.6L226.5,49.8z"/>
		<path class="st5" d="M236,57c-0.7,0-1.3-0.1-1.9-0.3c-0.6-0.2-1-0.5-1.4-0.9c-0.4-0.4-0.7-0.8-0.9-1.4c-0.2-0.6-0.3-1.2-0.3-1.9
			v-1.1c0-0.7,0.1-1.3,0.3-1.9c0.2-0.5,0.5-1,0.9-1.4c0.4-0.4,0.9-0.7,1.4-0.9c0.6-0.2,1.2-0.3,1.9-0.3c0.7,0,1.3,0.1,1.8,0.3
			c0.6,0.2,1,0.5,1.4,0.9c0.4,0.4,0.7,0.8,0.9,1.4c0.2,0.5,0.3,1.2,0.3,1.9v1.1c0,0.7-0.1,1.3-0.3,1.9c-0.2,0.6-0.5,1-0.9,1.4
			c-0.4,0.4-0.9,0.7-1.4,0.9C237.3,56.9,236.6,57,236,57z M236,55.1c0.3,0,0.6,0,0.9-0.1c0.3-0.1,0.5-0.2,0.7-0.4
			c0.2-0.2,0.4-0.5,0.5-0.8c0.1-0.3,0.2-0.7,0.2-1.2v-1.1c0-0.9-0.2-1.6-0.6-2c-0.4-0.4-1-0.6-1.7-0.6c-0.7,0-1.3,0.2-1.7,0.6
			c-0.4,0.4-0.6,1-0.6,2v1.1c0,0.5,0.1,0.8,0.2,1.2c0.1,0.3,0.3,0.6,0.5,0.8c0.2,0.2,0.4,0.3,0.7,0.4C235.3,55,235.6,55.1,236,55.1z
			"/>
		<path class="st5" d="M247.5,49.2c-0.2-0.1-0.3-0.1-0.5-0.2c-0.2,0-0.4-0.1-0.7-0.1c-0.3,0-0.6,0.1-0.8,0.2
			c-0.3,0.1-0.5,0.3-0.7,0.4c-0.2,0.2-0.3,0.4-0.5,0.7c-0.1,0.3-0.2,0.5-0.2,0.9v5.7H242v-9.6h2.1v1.4h0c0.3-0.5,0.6-0.9,1-1.2
			c0.4-0.3,1-0.4,1.7-0.4c0.2,0,0.5,0,0.7,0.1c0.2,0,0.5,0.1,0.6,0.1L247.5,49.2z"/>
		<path class="st5" d="M256.8,56c-0.5,0.3-1,0.6-1.6,0.8c-0.6,0.2-1.4,0.3-2.3,0.3c-0.6,0-1.1-0.1-1.6-0.2c-0.5-0.1-1-0.4-1.4-0.7
			c-0.4-0.3-0.7-0.8-1-1.4c-0.3-0.6-0.4-1.3-0.4-2.2v-1c0-0.8,0.1-1.5,0.3-2c0.2-0.6,0.5-1,0.9-1.4c0.4-0.4,0.9-0.6,1.4-0.8
			c0.5-0.2,1.1-0.3,1.7-0.3c0.6,0,1.2,0.1,1.7,0.3c0.5,0.2,1,0.4,1.3,0.8c0.4,0.4,0.7,0.8,0.9,1.3c0.2,0.5,0.3,1.1,0.3,1.8v1.6h-6.4
			c0,0.8,0.2,1.3,0.6,1.7c0.4,0.4,1,0.6,1.8,0.6c0.6,0,1.1-0.1,1.5-0.2c0.4-0.1,0.9-0.3,1.4-0.6L256.8,56z M255,51.2v-0.4
			c0-0.3,0-0.5-0.1-0.7c-0.1-0.2-0.2-0.4-0.4-0.6c-0.2-0.2-0.4-0.3-0.7-0.4c-0.3-0.1-0.6-0.2-1-0.2c-0.7,0-1.3,0.2-1.6,0.6
			c-0.4,0.4-0.5,0.8-0.5,1.4v0.4H255z"/>
		<path class="st5" d="M261.3,57c-1,0-1.8-0.2-2.4-0.7c-0.6-0.5-0.9-1.1-0.9-2v-0.6c0-0.4,0.1-0.8,0.2-1.1c0.1-0.3,0.3-0.6,0.6-0.9
			c0.3-0.2,0.7-0.4,1.1-0.6c0.5-0.1,1-0.2,1.7-0.2h2.2v-0.4c0-0.6-0.1-1-0.4-1.3c-0.3-0.3-0.7-0.4-1.3-0.4c-1,0-1.9,0.3-2.7,1
			l-1.1-1.6c0.5-0.3,1-0.6,1.7-0.9c0.6-0.3,1.3-0.4,2.2-0.4c0.6,0,1.1,0.1,1.6,0.2c0.5,0.1,0.9,0.3,1.2,0.6c0.3,0.3,0.6,0.6,0.8,1
			c0.2,0.4,0.3,0.8,0.3,1.3v6.8h-2l0-1.2c-0.1,0.2-0.2,0.4-0.4,0.6c-0.2,0.2-0.4,0.3-0.7,0.4c-0.3,0.1-0.5,0.2-0.8,0.3
			C261.8,57,261.6,57,261.3,57z M263.9,52.7h-2.1c-0.6,0-1,0.1-1.2,0.3c-0.2,0.2-0.3,0.5-0.3,0.9v0.2c0,0.3,0.1,0.6,0.3,0.7
			c0.2,0.2,0.5,0.3,1,0.3c0.9,0,1.6-0.2,2-0.6c0.2-0.2,0.3-0.4,0.3-0.6c0-0.2,0.1-0.5,0.1-0.9V52.7z"/>
		<path class="st5" d="M276.6,44.1c0.7,0,1.4,0.1,2,0.3c0.6,0.2,1.2,0.5,1.7,1c0.5,0.4,0.9,1,1.2,1.7c0.3,0.7,0.4,1.5,0.4,2.5v2.1
			c0,1-0.1,1.8-0.4,2.5c-0.3,0.7-0.7,1.3-1.2,1.7c-0.5,0.4-1,0.7-1.7,0.9c-0.6,0.2-1.3,0.3-2,0.3s-1.4-0.1-2.1-0.3
			c-0.6-0.2-1.2-0.5-1.7-0.9c-0.5-0.4-0.9-1-1.2-1.7c-0.3-0.7-0.4-1.5-0.4-2.5v-2.1c0-1,0.1-1.8,0.4-2.5c0.3-0.7,0.7-1.2,1.2-1.7
			c0.5-0.4,1.1-0.8,1.7-1C275.3,44.2,275.9,44.1,276.6,44.1z M276.6,55c0.4,0,0.8-0.1,1.2-0.2c0.4-0.1,0.7-0.3,1-0.6
			c0.3-0.3,0.5-0.7,0.7-1.1c0.2-0.5,0.2-1.1,0.2-1.8v-1.5c0-0.7-0.1-1.3-0.2-1.8c-0.2-0.5-0.4-0.9-0.7-1.1c-0.3-0.3-0.6-0.5-1-0.6
			c-0.4-0.1-0.8-0.2-1.2-0.2c-0.4,0-0.8,0.1-1.2,0.2c-0.4,0.1-0.7,0.3-1,0.6c-0.3,0.3-0.5,0.7-0.7,1.1c-0.2,0.5-0.2,1.1-0.2,1.8v1.5
			c0,0.7,0.1,1.3,0.2,1.8c0.2,0.5,0.4,0.9,0.7,1.1c0.3,0.3,0.6,0.5,1,0.6C275.8,55,276.2,55,276.6,55z"/>
		<path class="st5" d="M288.3,57c-0.6,0-1.1-0.1-1.5-0.3c-0.4-0.2-0.8-0.5-1-0.8v4.7h-2.2V47.2h2.1v1c0.2-0.2,0.4-0.4,0.6-0.6
			c0.2-0.2,0.5-0.3,0.7-0.4c0.2-0.1,0.5-0.2,0.7-0.2c0.3,0,0.5-0.1,0.7-0.1c0.6,0,1.2,0.1,1.6,0.3c0.5,0.2,0.9,0.5,1.2,0.8
			c0.3,0.4,0.5,0.8,0.7,1.3c0.2,0.5,0.2,1.1,0.2,1.7v1.7c0,0.7-0.1,1.2-0.3,1.7c-0.2,0.5-0.4,0.9-0.8,1.3c-0.3,0.4-0.7,0.6-1.2,0.8
			C289.5,56.9,288.9,57,288.3,57z M290,51.5c0-0.8-0.2-1.4-0.5-1.9c-0.3-0.4-0.8-0.7-1.5-0.7c-0.7,0-1.3,0.2-1.7,0.6
			c-0.4,0.4-0.6,1-0.6,1.6v2c0,0.2,0.1,0.4,0.2,0.7c0.1,0.2,0.3,0.4,0.5,0.6c0.2,0.2,0.4,0.3,0.7,0.4c0.3,0.1,0.6,0.2,0.9,0.2
			c0.6,0,1.1-0.2,1.5-0.7c0.3-0.4,0.5-1.1,0.5-1.9V51.5z"/>
		<path class="st5" d="M301.6,56c-0.5,0.3-1,0.6-1.6,0.8c-0.6,0.2-1.4,0.3-2.3,0.3c-0.6,0-1.1-0.1-1.6-0.2c-0.5-0.1-1-0.4-1.4-0.7
			c-0.4-0.3-0.7-0.8-1-1.4c-0.2-0.6-0.4-1.3-0.4-2.2v-1c0-0.8,0.1-1.5,0.3-2c0.2-0.6,0.5-1,0.9-1.4c0.4-0.4,0.9-0.6,1.4-0.8
			c0.5-0.2,1.1-0.3,1.7-0.3c0.6,0,1.2,0.1,1.7,0.3c0.5,0.2,1,0.4,1.3,0.8c0.4,0.4,0.7,0.8,0.9,1.3c0.2,0.5,0.3,1.1,0.3,1.8v1.6h-6.4
			c0,0.8,0.2,1.3,0.6,1.7c0.4,0.4,1,0.6,1.8,0.6c0.6,0,1.1-0.1,1.5-0.2c0.4-0.1,0.9-0.3,1.4-0.6L301.6,56z M299.7,51.2v-0.4
			c0-0.3,0-0.5-0.1-0.7c-0.1-0.2-0.2-0.4-0.4-0.6c-0.2-0.2-0.4-0.3-0.7-0.4c-0.3-0.1-0.6-0.2-1-0.2c-0.7,0-1.3,0.2-1.6,0.6
			c-0.4,0.4-0.6,0.8-0.6,1.4v0.4H299.7z"/>
		<path class="st5" d="M308.2,47c0.4,0,0.8,0.1,1.2,0.2c0.4,0.1,0.8,0.3,1.1,0.6c0.3,0.3,0.6,0.7,0.8,1.1c0.2,0.5,0.3,1,0.3,1.6v6.3
			h-2.2v-5.8c0-1.4-0.6-2.1-1.8-2.1c-0.2,0-0.4,0-0.6,0.1c-0.2,0.1-0.5,0.2-0.7,0.3c-0.2,0.2-0.4,0.4-0.6,0.7
			c-0.2,0.3-0.2,0.7-0.2,1.2v5.7h-2.2v-9.6h2.1v1.1h0c0.3-0.5,0.8-0.8,1.2-1C307.1,47.1,307.7,47,308.2,47z"/>
		<path class="st5" d="M327.7,56.9h-2.4l-1.2-3.5h-4.2l-1.2,3.5h-2.3l4.7-12.6h2L327.7,56.9z M320.4,51.5h2.9l-0.9-2.6
			c-0.2-0.4-0.3-0.8-0.4-1.1c-0.1-0.3-0.2-0.6-0.3-0.9c0,0.2-0.1,0.3-0.1,0.5c0,0.1-0.1,0.3-0.1,0.4c0,0.1-0.1,0.3-0.1,0.5
			c-0.1,0.2-0.1,0.4-0.2,0.6L320.4,51.5z"/>
		<path class="st5" d="M332.4,47c0.5,0,0.9,0,1.2,0.1c0.3,0.1,0.7,0.1,0.9,0.3c0.3,0.1,0.5,0.2,0.8,0.4c0.2,0.1,0.4,0.3,0.6,0.4
			l-1.1,1.6c-0.4-0.3-0.8-0.5-1.2-0.6c-0.4-0.1-0.8-0.2-1.3-0.2c-0.3,0-0.5,0-0.8,0.1c-0.3,0.1-0.5,0.2-0.7,0.4
			c-0.2,0.2-0.4,0.4-0.5,0.8c-0.1,0.3-0.2,0.7-0.2,1.1v1.2c0,0.5,0.1,0.9,0.2,1.2c0.1,0.3,0.3,0.6,0.5,0.8c0.2,0.2,0.4,0.3,0.7,0.4
			c0.3,0.1,0.5,0.1,0.7,0.1c0.6,0,1.1-0.1,1.5-0.2c0.4-0.1,0.8-0.3,1.1-0.6l1,1.6c-0.3,0.3-0.8,0.6-1.4,0.8
			c-0.6,0.2-1.4,0.3-2.3,0.3c-1.4,0-2.5-0.4-3.2-1.2c-0.7-0.8-1.1-1.9-1.1-3.2v-1.2c0-1.4,0.4-2.4,1.2-3.2
			C330,47.4,331.1,47,332.4,47z"/>
		<path class="st5" d="M341,47c0.5,0,0.9,0,1.2,0.1c0.3,0.1,0.7,0.1,0.9,0.3c0.3,0.1,0.5,0.2,0.8,0.4c0.2,0.1,0.4,0.3,0.6,0.4
			l-1.1,1.6c-0.4-0.3-0.8-0.5-1.2-0.6c-0.4-0.1-0.8-0.2-1.3-0.2c-0.3,0-0.5,0-0.8,0.1c-0.3,0.1-0.5,0.2-0.7,0.4
			c-0.2,0.2-0.4,0.4-0.5,0.8c-0.1,0.3-0.2,0.7-0.2,1.1v1.2c0,0.5,0.1,0.9,0.2,1.2c0.1,0.3,0.3,0.6,0.5,0.8c0.2,0.2,0.4,0.3,0.7,0.4
			c0.3,0.1,0.5,0.1,0.7,0.1c0.6,0,1.1-0.1,1.5-0.2c0.4-0.1,0.8-0.3,1.1-0.6l1,1.6c-0.3,0.3-0.8,0.6-1.4,0.8
			c-0.6,0.2-1.4,0.3-2.3,0.3c-1.4,0-2.5-0.4-3.2-1.2c-0.7-0.8-1.1-1.9-1.1-3.2v-1.2c0-1.4,0.4-2.4,1.2-3.2
			C338.6,47.4,339.7,47,341,47z"/>
		<path class="st5" d="M353.6,56c-0.5,0.3-1,0.6-1.6,0.8c-0.6,0.2-1.4,0.3-2.3,0.3c-0.6,0-1.1-0.1-1.6-0.2c-0.5-0.1-1-0.4-1.4-0.7
			c-0.4-0.3-0.7-0.8-1-1.4c-0.3-0.6-0.4-1.3-0.4-2.2v-1c0-0.8,0.1-1.5,0.3-2c0.2-0.6,0.5-1,0.9-1.4c0.4-0.4,0.9-0.6,1.4-0.8
			c0.5-0.2,1.1-0.3,1.7-0.3c0.6,0,1.2,0.1,1.7,0.3c0.5,0.2,1,0.4,1.3,0.8c0.4,0.4,0.7,0.8,0.9,1.3c0.2,0.5,0.3,1.1,0.3,1.8v1.6h-6.4
			c0,0.8,0.2,1.3,0.6,1.7c0.4,0.4,1,0.6,1.8,0.6c0.6,0,1.1-0.1,1.5-0.2c0.4-0.1,0.9-0.3,1.4-0.6L353.6,56z M351.7,51.2v-0.4
			c0-0.3,0-0.5-0.1-0.7c-0.1-0.2-0.2-0.4-0.4-0.6c-0.2-0.2-0.4-0.3-0.7-0.4c-0.3-0.1-0.6-0.2-1-0.2c-0.7,0-1.3,0.2-1.7,0.6
			c-0.4,0.4-0.5,0.8-0.5,1.4v0.4H351.7z"/>
		<path class="st5" d="M358.5,55.1c0.5,0,0.9-0.1,1.2-0.2c0.3-0.1,0.4-0.4,0.4-0.8v-0.1c0-0.2,0-0.3-0.1-0.4c0-0.1-0.1-0.2-0.3-0.3
			c-0.1-0.1-0.3-0.2-0.6-0.2c-0.3-0.1-0.6-0.2-1.1-0.2c-0.6-0.1-1.1-0.3-1.5-0.4c-0.4-0.2-0.8-0.4-1-0.6c-0.3-0.2-0.5-0.5-0.6-0.8
			c-0.1-0.3-0.2-0.7-0.2-1.2v-0.2c0-0.3,0.1-0.6,0.2-1c0.1-0.3,0.3-0.6,0.6-0.9c0.3-0.3,0.7-0.5,1.2-0.6c0.5-0.2,1-0.2,1.7-0.2
			c0.6,0,1.2,0.1,1.8,0.2c0.6,0.1,1.2,0.3,1.8,0.7l-0.9,1.6c-0.3-0.2-0.7-0.4-1.1-0.5c-0.4-0.1-0.8-0.1-1.2-0.1
			c-0.7,0-1.2,0.1-1.4,0.2c-0.3,0.2-0.4,0.4-0.4,0.6v0.1c0,0.2,0,0.3,0.1,0.4c0,0.1,0.1,0.2,0.3,0.3c0.1,0.1,0.3,0.1,0.5,0.2
			c0.2,0.1,0.5,0.1,0.9,0.2c0.6,0.1,1.1,0.3,1.6,0.4c0.4,0.1,0.8,0.3,1.1,0.5c0.3,0.2,0.5,0.5,0.6,0.9c0.1,0.3,0.2,0.8,0.2,1.3v0.2
			c0,0.4-0.1,0.7-0.3,1.1c-0.2,0.3-0.4,0.6-0.7,0.9c-0.3,0.3-0.7,0.5-1.2,0.6c-0.5,0.2-1,0.2-1.6,0.2c-0.8,0-1.6-0.1-2.3-0.3
			c-0.7-0.2-1.3-0.5-1.8-0.9l1-1.7c0.4,0.3,0.9,0.5,1.4,0.7C357.4,55,357.9,55.1,358.5,55.1z"/>
		<path class="st5" d="M366.8,55.1c0.5,0,0.9-0.1,1.2-0.2c0.3-0.1,0.4-0.4,0.4-0.8v-0.1c0-0.2,0-0.3-0.1-0.4c0-0.1-0.1-0.2-0.3-0.3
			c-0.1-0.1-0.3-0.2-0.6-0.2c-0.3-0.1-0.6-0.2-1.1-0.2c-0.6-0.1-1.1-0.3-1.5-0.4c-0.4-0.2-0.8-0.4-1-0.6c-0.3-0.2-0.5-0.5-0.6-0.8
			c-0.1-0.3-0.2-0.7-0.2-1.2v-0.2c0-0.3,0.1-0.6,0.2-1c0.1-0.3,0.3-0.6,0.6-0.9c0.3-0.3,0.7-0.5,1.2-0.6c0.5-0.2,1-0.2,1.7-0.2
			c0.6,0,1.1,0.1,1.8,0.2c0.6,0.1,1.2,0.3,1.8,0.7l-0.9,1.6c-0.3-0.2-0.7-0.4-1.1-0.5c-0.4-0.1-0.8-0.1-1.2-0.1
			c-0.7,0-1.2,0.1-1.4,0.2c-0.3,0.2-0.4,0.4-0.4,0.6v0.1c0,0.2,0,0.3,0.1,0.4c0,0.1,0.1,0.2,0.3,0.3c0.1,0.1,0.3,0.1,0.5,0.2
			c0.2,0.1,0.5,0.1,0.9,0.2c0.6,0.1,1.1,0.3,1.6,0.4c0.4,0.1,0.8,0.3,1.1,0.5c0.3,0.2,0.5,0.5,0.6,0.9c0.1,0.3,0.2,0.8,0.2,1.3v0.2
			c0,0.4-0.1,0.7-0.3,1.1c-0.2,0.3-0.4,0.6-0.7,0.9c-0.3,0.3-0.7,0.5-1.2,0.6c-0.5,0.2-1,0.2-1.6,0.2c-0.8,0-1.6-0.1-2.3-0.3
			c-0.7-0.2-1.3-0.5-1.8-0.9l1-1.7c0.4,0.3,0.9,0.5,1.4,0.7C365.7,55,366.2,55.1,366.8,55.1z"/>
		<path class="st5" d="M380.5,57c-0.6,0-1.1-0.1-1.5-0.3c-0.4-0.2-0.8-0.5-1-0.8v4.7h-2.2V47.2h2.1v1c0.2-0.2,0.4-0.4,0.6-0.6
			c0.2-0.2,0.5-0.3,0.7-0.4c0.2-0.1,0.5-0.2,0.7-0.2c0.2,0,0.5-0.1,0.7-0.1c0.6,0,1.2,0.1,1.6,0.3c0.5,0.2,0.9,0.5,1.2,0.8
			c0.3,0.4,0.5,0.8,0.7,1.3c0.2,0.5,0.2,1.1,0.2,1.7v1.7c0,0.7-0.1,1.2-0.3,1.7c-0.2,0.5-0.4,0.9-0.8,1.3c-0.3,0.4-0.7,0.6-1.2,0.8
			C381.6,56.9,381.1,57,380.5,57z M382.2,51.5c0-0.8-0.2-1.4-0.5-1.9c-0.3-0.4-0.8-0.7-1.5-0.7c-0.7,0-1.3,0.2-1.7,0.6
			c-0.4,0.4-0.6,1-0.6,1.6v2c0,0.2,0.1,0.4,0.2,0.7c0.1,0.2,0.3,0.4,0.5,0.6c0.2,0.2,0.4,0.3,0.7,0.4c0.3,0.1,0.6,0.2,0.9,0.2
			c0.6,0,1.1-0.2,1.5-0.7c0.3-0.4,0.5-1.1,0.5-1.9V51.5z"/>
		<path class="st5" d="M385.9,43.7h2.2v13.2h-2.2V43.7z"/>
		<path class="st5" d="M392.8,57c-1,0-1.8-0.2-2.4-0.7c-0.6-0.5-0.9-1.1-0.9-2v-0.6c0-0.4,0.1-0.8,0.2-1.1c0.1-0.3,0.3-0.6,0.6-0.9
			c0.3-0.2,0.7-0.4,1.1-0.6c0.5-0.1,1-0.2,1.7-0.2h2.2v-0.4c0-0.6-0.1-1-0.4-1.3c-0.3-0.3-0.7-0.4-1.3-0.4c-1,0-1.9,0.3-2.7,1
			l-1.1-1.6c0.5-0.3,1-0.6,1.7-0.9c0.6-0.3,1.3-0.4,2.2-0.4c0.6,0,1.1,0.1,1.6,0.2c0.5,0.1,0.9,0.3,1.2,0.6c0.3,0.3,0.6,0.6,0.8,1
			c0.2,0.4,0.3,0.8,0.3,1.3v6.8h-2l0-1.2c-0.1,0.2-0.2,0.4-0.4,0.6c-0.2,0.2-0.4,0.3-0.7,0.4c-0.3,0.1-0.5,0.2-0.8,0.3
			C393.4,57,393.1,57,392.8,57z M395.4,52.7h-2.1c-0.6,0-1,0.1-1.2,0.3c-0.2,0.2-0.3,0.5-0.3,0.9v0.2c0,0.3,0.1,0.6,0.3,0.7
			c0.2,0.2,0.5,0.3,1,0.3c0.9,0,1.6-0.2,2-0.6c0.2-0.2,0.3-0.4,0.3-0.6c0-0.2,0.1-0.5,0.1-0.9V52.7z"/>
		<path class="st5" d="M400.1,49.1h-1.5v-1.8h1.5v-2.5h2.2v2.5h2.4v1.8h-2.4v5.1c0,0.4,0.1,0.7,0.3,0.8c0.2,0.1,0.4,0.2,0.7,0.2
			c0.2,0,0.4,0,0.7-0.1c0.2,0,0.4-0.1,0.7-0.2l0.3,1.8c-0.2,0.1-0.5,0.2-0.8,0.3c-0.3,0.1-0.7,0.1-1.2,0.1c-0.5,0-1-0.1-1.4-0.2
			c-0.4-0.1-0.7-0.3-0.9-0.6c-0.2-0.2-0.4-0.5-0.5-0.9c-0.1-0.4-0.1-0.8-0.1-1.2V49.1z"/>
		<path class="st5" d="M406.7,49h-1.5v-1.8h1.5v-0.7c0-1,0.3-1.7,0.8-2.2c0.5-0.5,1.3-0.8,2.4-0.8c0.4,0,0.7,0,1,0.1
			c0.3,0.1,0.6,0.1,0.8,0.2l-0.3,1.8c-0.3-0.1-0.8-0.2-1.3-0.2c-0.8,0-1.2,0.4-1.2,1.2v0.6h2.4V49h-2.4v7.8h-2.2V49z"/>
		<path class="st5" d="M416.4,57c-0.7,0-1.3-0.1-1.9-0.3c-0.6-0.2-1-0.5-1.4-0.9c-0.4-0.4-0.7-0.8-0.9-1.4c-0.2-0.6-0.3-1.2-0.3-1.9
			v-1.1c0-0.7,0.1-1.3,0.3-1.9c0.2-0.5,0.5-1,0.9-1.4c0.4-0.4,0.9-0.7,1.4-0.9c0.6-0.2,1.2-0.3,1.9-0.3c0.7,0,1.3,0.1,1.8,0.3
			c0.6,0.2,1,0.5,1.4,0.9c0.4,0.4,0.7,0.8,0.9,1.4c0.2,0.5,0.3,1.2,0.3,1.9v1.1c0,0.7-0.1,1.3-0.3,1.9c-0.2,0.6-0.5,1-0.9,1.4
			c-0.4,0.4-0.9,0.7-1.4,0.9C417.7,56.9,417.1,57,416.4,57z M416.4,55.1c0.3,0,0.6,0,0.9-0.1c0.3-0.1,0.5-0.2,0.7-0.4
			c0.2-0.2,0.4-0.5,0.5-0.8c0.1-0.3,0.2-0.7,0.2-1.2v-1.1c0-0.9-0.2-1.6-0.6-2c-0.4-0.4-1-0.6-1.7-0.6c-0.7,0-1.3,0.2-1.7,0.6
			c-0.4,0.4-0.6,1-0.6,2v1.1c0,0.5,0.1,0.8,0.2,1.2c0.1,0.3,0.3,0.6,0.5,0.8c0.2,0.2,0.4,0.3,0.7,0.4
			C415.8,55,416.1,55.1,416.4,55.1z"/>
		<path class="st5" d="M428,49.2c-0.2-0.1-0.3-0.1-0.5-0.2c-0.2,0-0.4-0.1-0.7-0.1c-0.3,0-0.6,0.1-0.8,0.2c-0.3,0.1-0.5,0.3-0.7,0.4
			c-0.2,0.2-0.3,0.4-0.5,0.7c-0.1,0.3-0.2,0.5-0.2,0.9v5.7h-2.2v-9.6h2.1v1.4h0c0.3-0.5,0.6-0.9,1-1.2c0.4-0.3,1-0.4,1.7-0.4
			c0.2,0,0.5,0,0.7,0.1c0.2,0,0.5,0.1,0.6,0.1L428,49.2z"/>
		<path class="st5" d="M439.8,47c0.4,0,0.9,0.1,1.3,0.2c0.4,0.2,0.8,0.4,1.1,0.7c0.3,0.3,0.5,0.7,0.7,1.1c0.2,0.5,0.3,1,0.3,1.6v6.2
			h-2.2v-5.7c0-0.4,0-0.8-0.1-1.1c-0.1-0.3-0.2-0.5-0.4-0.7c-0.2-0.2-0.3-0.3-0.6-0.3c-0.2-0.1-0.4-0.1-0.7-0.1
			c-0.2,0-0.4,0-0.6,0.1c-0.2,0.1-0.4,0.2-0.6,0.3c-0.2,0.2-0.3,0.4-0.4,0.6c-0.1,0.3-0.2,0.6-0.2,1v5.8h-2.2v-5.8
			c0-0.4,0-0.7-0.1-1c-0.1-0.3-0.2-0.5-0.4-0.6c-0.2-0.2-0.3-0.3-0.5-0.3c-0.2-0.1-0.4-0.1-0.7-0.1c-0.5,0-0.9,0.2-1.3,0.5
			c-0.3,0.3-0.5,0.8-0.5,1.5v5.9h-2.2v-9.6h2.1v1.2h0c0.2-0.4,0.6-0.8,1-1c0.4-0.3,1-0.4,1.6-0.4c0.6,0,1.1,0.1,1.6,0.4
			s0.8,0.6,1,1.1c0.3-0.5,0.7-0.9,1.2-1.1C438.5,47.2,439.1,47,439.8,47z"/>
		<path class="st5" d="M449.4,49h-1.5v-1.8h1.5v-0.7c0-1,0.3-1.7,0.8-2.2c0.5-0.5,1.3-0.8,2.4-0.8c0.4,0,0.7,0,1,0.1
			c0.3,0.1,0.6,0.1,0.8,0.2l-0.4,1.8c-0.3-0.1-0.8-0.2-1.3-0.2c-0.8,0-1.2,0.4-1.2,1.2v0.6h2.4V49h-2.4v7.8h-2.2V49z"/>
		<path class="st5" d="M459.1,57c-0.7,0-1.3-0.1-1.9-0.3c-0.6-0.2-1-0.5-1.4-0.9c-0.4-0.4-0.7-0.8-0.9-1.4c-0.2-0.6-0.3-1.2-0.3-1.9
			v-1.1c0-0.7,0.1-1.3,0.3-1.9c0.2-0.5,0.5-1,0.9-1.4c0.4-0.4,0.9-0.7,1.4-0.9c0.6-0.2,1.2-0.3,1.9-0.3c0.7,0,1.3,0.1,1.8,0.3
			c0.6,0.2,1,0.5,1.4,0.9c0.4,0.4,0.7,0.8,0.9,1.4c0.2,0.5,0.3,1.2,0.3,1.9v1.1c0,0.7-0.1,1.3-0.3,1.9c-0.2,0.6-0.5,1-0.9,1.4
			c-0.4,0.4-0.9,0.7-1.4,0.9C460.4,56.9,459.8,57,459.1,57z M459.1,55.1c0.3,0,0.6,0,0.9-0.1c0.3-0.1,0.5-0.2,0.7-0.4
			c0.2-0.2,0.4-0.5,0.5-0.8c0.1-0.3,0.2-0.7,0.2-1.2v-1.1c0-0.9-0.2-1.6-0.6-2c-0.4-0.4-1-0.6-1.7-0.6s-1.3,0.2-1.7,0.6
			c-0.4,0.4-0.6,1-0.6,2v1.1c0,0.5,0.1,0.8,0.2,1.2c0.1,0.3,0.3,0.6,0.5,0.8c0.2,0.2,0.4,0.3,0.7,0.4
			C458.5,55,458.8,55.1,459.1,55.1z"/>
		<path class="st5" d="M470.7,49.2c-0.2-0.1-0.3-0.1-0.5-0.2c-0.2,0-0.4-0.1-0.7-0.1c-0.3,0-0.6,0.1-0.8,0.2
			c-0.3,0.1-0.5,0.3-0.7,0.4c-0.2,0.2-0.3,0.4-0.5,0.7c-0.1,0.3-0.2,0.5-0.2,0.9v5.7h-2.2v-9.6h2.1v1.4h0c0.3-0.5,0.6-0.9,1-1.2
			c0.4-0.3,1-0.4,1.7-0.4c0.2,0,0.5,0,0.7,0.1c0.2,0,0.5,0.1,0.6,0.1L470.7,49.2z"/>
		<path class="st5" d="M480.9,51.8h-2.6v5h-2.2V44.3h4.8c0.7,0,1.2,0.1,1.7,0.3c0.5,0.2,0.9,0.4,1.3,0.7c0.3,0.3,0.6,0.7,0.8,1.1
			c0.2,0.4,0.3,0.9,0.3,1.4v0.6c0,0.7-0.2,1.3-0.5,1.8c-0.3,0.5-0.8,0.9-1.5,1.2c0.4,0.9,0.8,1.8,1.2,2.7c0.4,0.9,0.8,1.8,1.2,2.7
			H483L480.9,51.8z M478.3,46.1v3.8h2.1c0.9,0,1.5-0.2,1.8-0.5c0.3-0.3,0.5-0.7,0.5-1.2v-0.5c0-0.5-0.2-0.9-0.5-1.2
			c-0.3-0.3-0.9-0.5-1.6-0.5H478.3z"/>
		<path class="st5" d="M494.7,56c-0.5,0.3-1,0.6-1.6,0.8c-0.6,0.2-1.4,0.3-2.3,0.3c-0.6,0-1.1-0.1-1.6-0.2c-0.5-0.1-1-0.4-1.4-0.7
			c-0.4-0.3-0.7-0.8-1-1.4c-0.3-0.6-0.4-1.3-0.4-2.2v-1c0-0.8,0.1-1.5,0.3-2c0.2-0.6,0.5-1,0.9-1.4c0.4-0.4,0.9-0.6,1.4-0.8
			c0.5-0.2,1.1-0.3,1.7-0.3c0.6,0,1.2,0.1,1.7,0.3c0.5,0.2,1,0.4,1.3,0.8c0.4,0.4,0.7,0.8,0.9,1.3c0.2,0.5,0.3,1.1,0.3,1.8v1.6h-6.4
			c0,0.8,0.2,1.3,0.6,1.7c0.4,0.4,1,0.6,1.8,0.6c0.6,0,1.1-0.1,1.5-0.2c0.4-0.1,0.9-0.3,1.4-0.6L494.7,56z M492.8,51.2v-0.4
			c0-0.3,0-0.5-0.1-0.7c-0.1-0.2-0.2-0.4-0.4-0.6c-0.2-0.2-0.4-0.3-0.7-0.4c-0.3-0.1-0.6-0.2-1-0.2c-0.7,0-1.3,0.2-1.6,0.6
			c-0.4,0.4-0.5,0.8-0.5,1.4v0.4H492.8z"/>
		<path class="st5" d="M499.6,55.1c0.5,0,0.9-0.1,1.2-0.2c0.3-0.1,0.4-0.4,0.4-0.8v-0.1c0-0.2,0-0.3-0.1-0.4c0-0.1-0.1-0.2-0.3-0.3
			c-0.1-0.1-0.3-0.2-0.6-0.2c-0.3-0.1-0.6-0.2-1.1-0.2c-0.6-0.1-1.1-0.3-1.5-0.4c-0.4-0.2-0.8-0.4-1-0.6c-0.3-0.2-0.5-0.5-0.6-0.8
			c-0.1-0.3-0.2-0.7-0.2-1.2v-0.2c0-0.3,0.1-0.6,0.2-1c0.1-0.3,0.3-0.6,0.6-0.9c0.3-0.3,0.7-0.5,1.2-0.6c0.5-0.2,1-0.2,1.7-0.2
			c0.6,0,1.2,0.1,1.8,0.2c0.6,0.1,1.2,0.3,1.8,0.7l-0.9,1.6c-0.3-0.2-0.7-0.4-1.1-0.5c-0.4-0.1-0.8-0.1-1.2-0.1
			c-0.7,0-1.2,0.1-1.4,0.2c-0.3,0.2-0.4,0.4-0.4,0.6v0.1c0,0.2,0,0.3,0.1,0.4c0,0.1,0.1,0.2,0.3,0.3c0.1,0.1,0.3,0.1,0.5,0.2
			c0.2,0.1,0.5,0.1,0.9,0.2c0.6,0.1,1.1,0.3,1.6,0.4c0.4,0.1,0.8,0.3,1.1,0.5c0.3,0.2,0.5,0.5,0.6,0.9c0.1,0.3,0.2,0.8,0.2,1.3v0.2
			c0,0.4-0.1,0.7-0.3,1.1c-0.2,0.3-0.4,0.6-0.7,0.9c-0.3,0.3-0.7,0.5-1.2,0.6c-0.5,0.2-1,0.2-1.6,0.2c-0.8,0-1.6-0.1-2.3-0.3
			c-0.7-0.2-1.3-0.5-1.8-0.9l1-1.7c0.4,0.3,0.9,0.5,1.4,0.7C498.4,55,499,55.1,499.6,55.1z"/>
		<path class="st5" d="M512.6,56c-0.5,0.3-1,0.6-1.6,0.8c-0.6,0.2-1.4,0.3-2.3,0.3c-0.6,0-1.1-0.1-1.6-0.2c-0.5-0.1-1-0.4-1.4-0.7
			c-0.4-0.3-0.7-0.8-1-1.4c-0.2-0.6-0.4-1.3-0.4-2.2v-1c0-0.8,0.1-1.5,0.3-2c0.2-0.6,0.5-1,0.9-1.4c0.4-0.4,0.9-0.6,1.4-0.8
			c0.5-0.2,1.1-0.3,1.7-0.3c0.6,0,1.2,0.1,1.7,0.3c0.5,0.2,1,0.4,1.3,0.8c0.4,0.4,0.7,0.8,0.9,1.3c0.2,0.5,0.3,1.1,0.3,1.8v1.6h-6.4
			c0,0.8,0.2,1.3,0.6,1.7c0.4,0.4,1,0.6,1.8,0.6c0.6,0,1.1-0.1,1.5-0.2c0.4-0.1,0.9-0.3,1.4-0.6L512.6,56z M510.7,51.2v-0.4
			c0-0.3,0-0.5-0.1-0.7c-0.1-0.2-0.2-0.4-0.4-0.6c-0.2-0.2-0.4-0.3-0.7-0.4c-0.3-0.1-0.6-0.2-1-0.2c-0.7,0-1.3,0.2-1.6,0.6
			c-0.4,0.4-0.5,0.8-0.5,1.4v0.4H510.7z"/>
		<path class="st5" d="M517.1,57c-1,0-1.8-0.2-2.4-0.7c-0.6-0.5-0.9-1.1-0.9-2v-0.6c0-0.4,0.1-0.8,0.2-1.1c0.1-0.3,0.3-0.6,0.6-0.9
			c0.3-0.2,0.7-0.4,1.1-0.6c0.5-0.1,1-0.2,1.7-0.2h2.2v-0.4c0-0.6-0.1-1-0.4-1.3c-0.3-0.3-0.7-0.4-1.3-0.4c-1,0-1.9,0.3-2.7,1
			l-1.1-1.6c0.5-0.3,1-0.6,1.7-0.9c0.6-0.3,1.3-0.4,2.2-0.4c0.6,0,1.1,0.1,1.6,0.2c0.5,0.1,0.9,0.3,1.2,0.6c0.3,0.3,0.6,0.6,0.8,1
			c0.2,0.4,0.3,0.8,0.3,1.3v6.8h-2l0-1.2c-0.1,0.2-0.2,0.4-0.4,0.6c-0.2,0.2-0.4,0.3-0.7,0.4c-0.3,0.1-0.5,0.2-0.8,0.3
			C517.6,57,517.3,57,517.1,57z M519.7,52.7h-2.1c-0.6,0-1,0.1-1.2,0.3c-0.2,0.2-0.3,0.5-0.3,0.9v0.2c0,0.3,0.1,0.6,0.3,0.7
			c0.2,0.2,0.5,0.3,1,0.3c0.9,0,1.6-0.2,2-0.6c0.2-0.2,0.3-0.4,0.3-0.6c0-0.2,0.1-0.5,0.1-0.9V52.7z"/>
		<path class="st5" d="M529.3,49.2c-0.2-0.1-0.3-0.1-0.5-0.2c-0.2,0-0.4-0.1-0.7-0.1c-0.3,0-0.6,0.1-0.8,0.2
			c-0.3,0.1-0.5,0.3-0.7,0.4c-0.2,0.2-0.3,0.4-0.5,0.7s-0.2,0.5-0.2,0.9v5.7h-2.2v-9.6h2.1v1.4h0c0.3-0.5,0.6-0.9,1-1.2
			c0.4-0.3,1-0.4,1.7-0.4c0.2,0,0.5,0,0.7,0.1c0.2,0,0.5,0.1,0.6,0.1L529.3,49.2z"/>
		<path class="st5" d="M534.6,47c0.5,0,0.9,0,1.2,0.1c0.3,0.1,0.7,0.1,0.9,0.3c0.3,0.1,0.5,0.2,0.8,0.4c0.2,0.1,0.4,0.3,0.6,0.4
			l-1.1,1.6c-0.4-0.3-0.8-0.5-1.2-0.6c-0.4-0.1-0.8-0.2-1.3-0.2c-0.3,0-0.5,0-0.8,0.1c-0.3,0.1-0.5,0.2-0.7,0.4
			c-0.2,0.2-0.4,0.4-0.5,0.8c-0.1,0.3-0.2,0.7-0.2,1.1v1.2c0,0.5,0.1,0.9,0.2,1.2c0.1,0.3,0.3,0.6,0.5,0.8c0.2,0.2,0.4,0.3,0.7,0.4
			c0.3,0.1,0.5,0.1,0.8,0.1c0.6,0,1.1-0.1,1.5-0.2c0.4-0.1,0.8-0.3,1.1-0.6l1,1.6c-0.3,0.3-0.8,0.6-1.4,0.8
			c-0.6,0.2-1.4,0.3-2.3,0.3c-1.4,0-2.5-0.4-3.2-1.2c-0.7-0.8-1.1-1.9-1.1-3.2v-1.2c0-1.4,0.4-2.4,1.2-3.2
			C532.1,47.4,533.2,47,534.6,47z"/>
		<path class="st5" d="M544.3,47c0.4,0,0.8,0.1,1.2,0.2c0.4,0.1,0.8,0.3,1.1,0.6c0.3,0.3,0.6,0.7,0.8,1.1c0.2,0.5,0.3,1,0.3,1.6v6.3
			h-2.2v-5.8c0-1.4-0.6-2.1-1.8-2.1c-0.2,0-0.4,0-0.6,0.1c-0.2,0.1-0.5,0.2-0.7,0.3c-0.2,0.2-0.4,0.4-0.5,0.7
			c-0.2,0.3-0.2,0.7-0.2,1.2v5.7h-2.2V43.7h2.1v4.7h0c0.3-0.5,0.8-0.8,1.2-1C543.2,47.1,543.7,47,544.3,47z"/>
		<path class="st5" d="M557.4,56c-0.5,0.3-1,0.6-1.6,0.8c-0.6,0.2-1.4,0.3-2.3,0.3c-0.6,0-1.1-0.1-1.6-0.2c-0.5-0.1-1-0.4-1.4-0.7
			c-0.4-0.3-0.7-0.8-1-1.4c-0.3-0.6-0.4-1.3-0.4-2.2v-1c0-0.8,0.1-1.5,0.3-2c0.2-0.6,0.5-1,0.9-1.4c0.4-0.4,0.9-0.6,1.4-0.8
			c0.5-0.2,1.1-0.3,1.7-0.3c0.6,0,1.2,0.1,1.7,0.3c0.5,0.2,1,0.4,1.3,0.8c0.4,0.4,0.7,0.8,0.9,1.3c0.2,0.5,0.3,1.1,0.3,1.8v1.6h-6.4
			c0,0.8,0.2,1.3,0.6,1.7c0.4,0.4,1,0.6,1.8,0.6c0.6,0,1.1-0.1,1.5-0.2c0.4-0.1,0.9-0.3,1.4-0.6L557.4,56z M555.5,51.2v-0.4
			c0-0.3,0-0.5-0.1-0.7c-0.1-0.2-0.2-0.4-0.4-0.6c-0.2-0.2-0.4-0.3-0.7-0.4c-0.3-0.1-0.6-0.2-1-0.2c-0.7,0-1.3,0.2-1.6,0.6
			c-0.4,0.4-0.5,0.8-0.5,1.4v0.4H555.5z"/>
		<path class="st5" d="M564.6,49.2c-0.2-0.1-0.3-0.1-0.5-0.2c-0.2,0-0.4-0.1-0.7-0.1c-0.3,0-0.6,0.1-0.8,0.2
			c-0.3,0.1-0.5,0.3-0.7,0.4c-0.2,0.2-0.3,0.4-0.5,0.7c-0.1,0.3-0.2,0.5-0.2,0.9v5.7h-2.2v-9.6h2.1v1.4h0c0.3-0.5,0.6-0.9,1-1.2
			c0.4-0.3,1-0.4,1.7-0.4c0.2,0,0.5,0,0.7,0.1c0.2,0,0.5,0.1,0.6,0.1L564.6,49.2z"/>
		<path class="st5" d="M569.4,55.1c0.5,0,0.9-0.1,1.2-0.2c0.3-0.1,0.4-0.4,0.4-0.8v-0.1c0-0.2,0-0.3-0.1-0.4c0-0.1-0.1-0.2-0.3-0.3
			c-0.1-0.1-0.3-0.2-0.6-0.2c-0.3-0.1-0.6-0.2-1.1-0.2c-0.6-0.1-1.1-0.3-1.5-0.4c-0.4-0.2-0.8-0.4-1-0.6c-0.3-0.2-0.5-0.5-0.6-0.8
			c-0.1-0.3-0.2-0.7-0.2-1.2v-0.2c0-0.3,0.1-0.6,0.2-1c0.1-0.3,0.3-0.6,0.6-0.9c0.3-0.3,0.7-0.5,1.2-0.6c0.5-0.2,1-0.2,1.7-0.2
			c0.6,0,1.1,0.1,1.8,0.2c0.6,0.1,1.2,0.3,1.8,0.7l-0.9,1.6c-0.3-0.2-0.7-0.4-1.1-0.5c-0.4-0.1-0.8-0.1-1.2-0.1
			c-0.7,0-1.2,0.1-1.4,0.2s-0.4,0.4-0.4,0.6v0.1c0,0.2,0,0.3,0.1,0.4c0,0.1,0.1,0.2,0.3,0.3c0.1,0.1,0.3,0.1,0.5,0.2
			c0.2,0.1,0.5,0.1,0.9,0.2c0.6,0.1,1.1,0.3,1.6,0.4c0.4,0.1,0.8,0.3,1.1,0.5c0.3,0.2,0.5,0.5,0.6,0.9c0.1,0.3,0.2,0.8,0.2,1.3v0.2
			c0,0.4-0.1,0.7-0.3,1.1c-0.2,0.3-0.4,0.6-0.7,0.9c-0.3,0.3-0.7,0.5-1.2,0.6c-0.5,0.2-1,0.2-1.6,0.2c-0.8,0-1.6-0.1-2.3-0.3
			c-0.7-0.2-1.3-0.5-1.8-0.9l1-1.7c0.4,0.3,0.9,0.5,1.4,0.7C568.2,55,568.8,55.1,569.4,55.1z"/>
	</g>
	<g>
		<path class="st6" d="M235.1,29v-7.2h-11.8c-0.6,0-1-0.2-1.3-0.6c-0.3-0.4-0.4-0.9-0.4-1.4c0-0.6,0.1-1,0.4-1.4
			c0.3-0.4,0.7-0.6,1.3-0.6h28.3c0.6,0,1,0.2,1.3,0.6c0.3,0.4,0.4,0.9,0.4,1.4c0,0.5-0.1,1-0.4,1.4c-0.3,0.4-0.7,0.6-1.3,0.6h-11.8
			V29H235.1z M226.9,30.8c-0.6,0-1-0.2-1.3-0.6c-0.3-0.4-0.4-0.9-0.4-1.4c0-0.5,0.1-1,0.4-1.4c0.3-0.4,0.7-0.6,1.3-0.6h19.2
			c1.2,0,2,0.2,2.5,0.7c0.5,0.4,0.7,1.3,0.7,2.4v7.5c0,0.7-0.2,1.2-0.7,1.5c-0.5,0.3-1,0.5-1.7,0.5c-0.6,0-1.2-0.2-1.7-0.5
			c-0.5-0.3-0.7-0.8-0.7-1.5v-5.7c0-0.6-0.3-0.9-0.9-0.9H226.9z M227,9.6c-0.6,0-1-0.2-1.3-0.6c-0.3-0.4-0.4-0.9-0.4-1.5
			s0.1-1.1,0.4-1.5c0.3-0.4,0.7-0.6,1.3-0.6h18.7c1.2,0,2,0.2,2.5,0.7c0.5,0.4,0.7,1.3,0.7,2.4v2.6c0,0.9-0.1,1.7-0.2,2.6
			c-0.1,0.9-0.2,1.7-0.4,2.5c-0.2,0.8-0.3,1.6-0.5,2.2c-0.2,0.7-0.4,1.3-0.6,1.7l-4.2-0.9c0.7-2.7,1.1-5.3,1.1-7.9v-1
			c0-0.6-0.3-0.9-0.9-0.9H227z"/>
		<path class="st6" d="M257.9,10.7c-0.6,0-1-0.2-1.3-0.6c-0.3-0.4-0.4-0.9-0.4-1.4c0-0.6,0.1-1.1,0.4-1.5c0.3-0.4,0.7-0.6,1.3-0.6
			h11.2c1.2,0,2,0.2,2.5,0.7c0.5,0.4,0.7,1.3,0.7,2.4v4.1c0,1.6-0.2,2.9-0.5,4.1c-0.3,1.2-0.9,2.3-1.8,3.4c-0.9,1.1-2.2,2.3-4,3.5
			c-1.7,1.2-4,2.7-6.8,4.5c-0.5,0.3-1.1,0.4-1.6,0.2c-0.6-0.2-1-0.5-1.3-1c-0.3-0.4-0.5-1-0.5-1.6c0-0.6,0.3-1.1,0.8-1.4
			c1.7-1,3.2-1.9,4.4-2.7c1.2-0.8,2.2-1.5,3-2.1c0.8-0.6,1.4-1.2,1.9-1.7c0.5-0.5,0.8-1.1,1-1.6c0.2-0.5,0.4-1.1,0.5-1.7
			c0.1-0.6,0.1-1.2,0.1-2v-2.1c0-0.6-0.3-0.9-0.9-0.9H257.9z M285.8,15.1c0.6,0,1,0.2,1.3,0.6c0.3,0.4,0.4,0.9,0.4,1.5
			c0,0.6-0.1,1.1-0.4,1.5c-0.3,0.4-0.7,0.6-1.3,0.6h-3.5v15.5c0,0.7-0.2,1.2-0.7,1.5c-0.5,0.3-1,0.5-1.7,0.5c-0.6,0-1.2-0.2-1.7-0.5
			c-0.5-0.3-0.7-0.8-0.7-1.5V6.1c0-0.7,0.2-1.2,0.7-1.5c0.5-0.3,1-0.5,1.7-0.5c0.6,0,1.2,0.2,1.7,0.5c0.5,0.3,0.7,0.8,0.7,1.5v9
			H285.8z"/>
		<path class="st6" d="M299.2,33.8c-0.6,0-1-0.2-1.3-0.6c-0.3-0.4-0.4-0.9-0.4-1.4c0-0.6,0.1-1,0.4-1.4c0.3-0.4,0.7-0.6,1.3-0.6H311
			v-8.3h4.8v8.3h11.8c0.6,0,1,0.2,1.3,0.6c0.3,0.4,0.4,0.9,0.4,1.4c0,0.5-0.1,1-0.4,1.4c-0.3,0.4-0.7,0.6-1.3,0.6H299.2z
			 M301.5,14.7c0-1.5,0.3-2.8,0.8-4c0.5-1.2,1.3-2.1,2.3-2.9c1-0.8,2.3-1.4,3.7-1.8c1.5-0.4,3.1-0.6,5-0.6c1.8,0,3.5,0.2,4.9,0.6
			c1.5,0.4,2.7,1,3.7,1.8c1,0.8,1.8,1.8,2.3,2.9c0.6,1.2,0.8,2.5,0.8,4c0,1.5-0.3,2.8-0.8,4c-0.5,1.2-1.3,2.1-2.3,2.9
			c-1,0.8-2.3,1.4-3.7,1.8c-1.5,0.4-3.1,0.6-4.9,0.6c-1.9,0-3.5-0.2-5-0.6c-1.5-0.4-2.7-1-3.7-1.8c-1-0.8-1.8-1.8-2.3-2.9
			C301.8,17.6,301.5,16.2,301.5,14.7z M320.4,14.7c0-0.7-0.1-1.4-0.4-2.1c-0.3-0.6-0.7-1.2-1.3-1.7c-0.6-0.5-1.3-0.8-2.2-1.1
			c-0.9-0.3-2-0.4-3.2-0.4c-1.3,0-2.3,0.1-3.2,0.4c-0.9,0.3-1.6,0.7-2.2,1.1c-0.6,0.5-1,1-1.3,1.7c-0.3,0.6-0.4,1.4-0.4,2.1
			c0,0.8,0.1,1.5,0.4,2.1c0.3,0.6,0.7,1.2,1.3,1.7c0.6,0.5,1.3,0.9,2.2,1.1c0.9,0.3,2,0.4,3.2,0.4c1.2,0,2.3-0.1,3.2-0.4
			c0.9-0.3,1.6-0.7,2.2-1.1c0.6-0.5,1-1,1.3-1.7C320.3,16.2,320.4,15.5,320.4,14.7z"/>
		<path class="st6" d="M332.8,26c-0.6,0-1-0.2-1.3-0.6c-0.3-0.4-0.4-0.9-0.4-1.4c0-0.5,0.1-1,0.4-1.4c0.3-0.4,0.7-0.6,1.3-0.6h28.3
			c0.6,0,1,0.2,1.3,0.6c0.3,0.4,0.4,0.9,0.4,1.4c0,0.6-0.1,1-0.4,1.4c-0.3,0.4-0.7,0.6-1.3,0.6H332.8z M354.7,15.2h3.2
			c0.5,0,1,0.2,1.2,0.6c0.3,0.4,0.4,0.8,0.4,1.4c0,0.5-0.1,1-0.4,1.4c-0.3,0.4-0.7,0.6-1.2,0.6h-22.1c-0.5,0-1-0.2-1.2-0.6
			c-0.3-0.4-0.4-0.8-0.4-1.4c0-0.5,0.1-1,0.4-1.4c0.3-0.4,0.7-0.6,1.2-0.6h3.2V9.4h-3.1c-0.5,0-1-0.2-1.2-0.6
			c-0.3-0.4-0.4-0.8-0.4-1.4c0-0.5,0.1-1,0.4-1.4c0.3-0.4,0.7-0.6,1.2-0.6h21.8c0.5,0,1,0.2,1.2,0.6c0.3,0.4,0.4,0.8,0.4,1.4
			c0,0.5-0.1,1-0.4,1.4c-0.3,0.4-0.7,0.6-1.2,0.6h-3.1V15.2z M357.7,34.7c0.6,0,1,0.2,1.3,0.6c0.3,0.4,0.4,0.9,0.4,1.4
			c0,0.5-0.1,1-0.4,1.4c-0.3,0.4-0.7,0.6-1.3,0.6h-19.4c-1.2,0-2-0.2-2.5-0.7c-0.5-0.5-0.7-1.3-0.7-2.4v-5.5c0-0.7,0.2-1.2,0.7-1.5
			c0.5-0.3,1.1-0.5,1.7-0.5c0.6,0,1.2,0.2,1.7,0.5c0.5,0.3,0.7,0.8,0.7,1.5v3.7c0,0.6,0.3,0.9,0.9,0.9H357.7z M343.7,15.2h6.5V9.4
			h-6.5V15.2z"/>
		<path class="st6" d="M364.7,14.2c0-1.2,0.2-2.4,0.5-3.4c0.3-1,0.8-1.9,1.4-2.7c0.6-0.8,1.5-1.3,2.4-1.8c1-0.4,2.1-0.6,3.5-0.6
			c1.3,0,2.5,0.2,3.5,0.6c1,0.4,1.8,1,2.4,1.8c0.6,0.8,1.1,1.6,1.4,2.7c0.3,1,0.5,2.2,0.5,3.4c0,1.3-0.2,2.4-0.5,3.4
			c-0.3,1-0.8,1.9-1.4,2.7c-0.6,0.8-1.5,1.3-2.4,1.8c-1,0.4-2.1,0.6-3.5,0.6c-1.3,0-2.5-0.2-3.5-0.6c-1-0.4-1.8-1-2.4-1.8
			c-0.6-0.8-1.1-1.6-1.4-2.7C364.9,16.6,364.7,15.5,364.7,14.2z M376,14.2c0-1.3-0.3-2.3-0.8-3.2c-0.5-0.9-1.4-1.3-2.7-1.3
			c-1.2,0-2.1,0.4-2.7,1.3c-0.5,0.9-0.8,1.9-0.8,3.2c0,1.3,0.3,2.3,0.8,3.2c0.5,0.9,1.4,1.3,2.7,1.3c1.2,0,2.1-0.4,2.7-1.3
			C375.7,16.6,376,15.5,376,14.2z M389.7,30.9c0-0.6-0.3-0.9-0.9-0.9H372c-0.6,0-1-0.2-1.3-0.6c-0.3-0.4-0.4-0.9-0.4-1.4
			c0-0.5,0.1-1,0.4-1.4c0.3-0.4,0.7-0.6,1.3-0.6h19.2c1.2,0,2,0.2,2.5,0.7c0.5,0.5,0.7,1.3,0.7,2.4v8.2c0,0.7-0.2,1.2-0.7,1.5
			c-0.5,0.3-1,0.5-1.7,0.5c-0.6,0-1.2-0.2-1.7-0.5c-0.5-0.3-0.7-0.8-0.7-1.5V30.9z M387,12.2h3V5.9c0-0.6,0.2-1.1,0.7-1.4
			c0.4-0.3,1-0.4,1.5-0.4c0.6,0,1.1,0.2,1.5,0.4c0.5,0.3,0.7,0.8,0.7,1.4v16.8c0,0.6-0.2,1.1-0.7,1.4c-0.4,0.3-1,0.4-1.5,0.4
			c-0.6,0-1.1-0.1-1.5-0.4c-0.5-0.3-0.7-0.8-0.7-1.4v-6.5h-3v6.3c0,0.7-0.2,1.1-0.7,1.4c-0.4,0.3-1,0.5-1.5,0.5
			c-0.6,0-1-0.2-1.5-0.5c-0.4-0.3-0.7-0.8-0.7-1.4V6.1c0-0.6,0.2-1.1,0.7-1.4c0.4-0.3,0.9-0.5,1.5-0.5c0.6,0,1.1,0.2,1.5,0.5
			c0.5,0.3,0.7,0.8,0.7,1.4V12.2z"/>
		<path class="st6" d="M404.4,8.1c0-0.7,0.2-1.2,0.7-1.5c0.5-0.3,1-0.5,1.7-0.5c0.6,0,1.2,0.2,1.7,0.5c0.5,0.3,0.7,0.8,0.7,1.5v5.4
			c0,1.5,0.2,2.8,0.5,3.9c0.3,1.1,0.9,2.1,1.7,3.1c0.6,0.7,1.2,1.4,1.7,2.1c0.6,0.6,1.1,1.2,1.5,1.7c0.4,0.4,0.6,1,0.5,1.6
			c-0.1,0.6-0.3,1.1-0.7,1.4c-0.4,0.4-0.9,0.6-1.5,0.6c-0.6,0-1.1-0.2-1.5-0.6c-0.3-0.3-0.7-0.8-1.2-1.3c-0.5-0.5-0.9-1.1-1.4-1.6
			c-0.4-0.4-0.7-0.9-0.9-1.2c-0.3-0.3-0.4-0.7-0.6-0.9c-0.1-0.3-0.3-0.5-0.3-0.7c-0.1-0.2-0.1-0.4-0.1-0.6h0
			c-0.1,0.4-0.2,0.9-0.5,1.4c-0.3,0.5-0.8,1.3-1.6,2.2c-0.5,0.6-0.9,1.1-1.4,1.7c-0.5,0.6-1,1.2-1.6,1.7c-0.4,0.4-0.9,0.6-1.5,0.6
			c-0.6,0-1.1-0.2-1.5-0.6c-0.4-0.4-0.7-0.9-0.7-1.5c-0.1-0.6,0.1-1.1,0.5-1.6c0.7-0.7,1.3-1.4,1.9-2.1c0.6-0.7,1.2-1.4,1.8-2.1
			c0.8-1,1.4-2,1.7-3.1c0.3-1.1,0.5-2.4,0.5-3.9V8.1z M416.8,6.3c0-0.6,0.2-1.1,0.7-1.4c0.5-0.3,1-0.4,1.5-0.4c0.6,0,1,0.2,1.5,0.4
			c0.5,0.3,0.7,0.8,0.7,1.4v27.1c0,0.7-0.2,1.1-0.7,1.4c-0.5,0.3-0.9,0.5-1.5,0.5c-0.6,0-1.1-0.1-1.5-0.5c-0.5-0.3-0.7-0.8-0.7-1.4
			V18H414c-0.6,0-1-0.2-1.3-0.6c-0.3-0.4-0.4-0.9-0.4-1.5c0-0.6,0.1-1.1,0.4-1.5c0.3-0.4,0.7-0.6,1.3-0.6h2.8V6.3z M423.6,5.9
			c0-0.6,0.2-1.1,0.7-1.4c0.4-0.3,1-0.4,1.5-0.4c0.6,0,1.1,0.2,1.5,0.4c0.4,0.3,0.7,0.8,0.7,1.4v29c0,0.6-0.2,1.1-0.7,1.4
			c-0.5,0.3-1,0.5-1.5,0.5c-0.6,0-1.1-0.2-1.5-0.5c-0.4-0.3-0.7-0.8-0.7-1.4V5.9z"/>
		<path class="st6" d="M433.4,33.8c-0.6,0-1-0.2-1.3-0.6c-0.3-0.4-0.4-0.9-0.4-1.4c0-0.6,0.1-1.1,0.4-1.5c0.3-0.4,0.7-0.6,1.3-0.6
			h28.4c0.6,0,1,0.2,1.3,0.6c0.3,0.4,0.4,0.9,0.4,1.5c0,0.5-0.1,1-0.4,1.4c-0.3,0.4-0.7,0.6-1.3,0.6H433.4z M460.2,19.9
			c0.5,0.3,0.8,0.7,0.8,1.3c0,0.6-0.1,1.1-0.4,1.6c-0.3,0.5-0.7,0.8-1.2,1c-0.5,0.2-1.1,0.2-1.6-0.1c-1.2-0.7-2.4-1.3-3.5-2
			c-1.1-0.6-2.1-1.3-3.2-1.9c-1.1-0.7-2-1.4-2.5-2c-0.6-0.6-0.9-1.2-1-1.6h0c-0.1,0.5-0.5,1.1-1,1.7c-0.6,0.6-1.4,1.3-2.5,2
			c-1,0.7-2.1,1.3-3.2,2c-1.1,0.7-2.2,1.3-3.5,2c-0.5,0.3-1,0.3-1.6,0.1c-0.5-0.2-0.9-0.6-1.2-1.1c-0.3-0.5-0.4-1-0.4-1.6
			c0-0.6,0.3-1,0.8-1.3c1.1-0.6,2.1-1.2,3.2-1.9c1.1-0.6,2.2-1.3,3.3-2c1.3-0.8,2.2-1.7,2.8-2.7c0.6-1,0.8-2.2,0.8-3.6v-2
			c0-0.7,0.2-1.2,0.7-1.6c0.5-0.3,1.1-0.5,1.7-0.5c0.6,0,1.2,0.2,1.7,0.5c0.5,0.3,0.7,0.9,0.7,1.6v2c0,1.4,0.3,2.6,0.8,3.6
			c0.6,1,1.5,1.9,2.8,2.7c1.2,0.7,2.3,1.4,3.3,2C458.1,18.7,459.1,19.3,460.2,19.9z"/>
		<path class="st6" d="M475.8,23c-0.6,0-1-0.2-1.3-0.6c-0.3-0.4-0.4-0.9-0.4-1.4c0-0.5,0.1-1,0.4-1.4c0.3-0.4,0.7-0.6,1.3-0.6h28.4
			c0.6,0,1,0.2,1.3,0.6c0.3,0.4,0.4,0.8,0.4,1.4c0,0.6-0.1,1-0.4,1.4c-0.3,0.4-0.7,0.6-1.3,0.6H475.8z M482.2,8.8H479
			c-0.5,0-0.9-0.2-1.1-0.6c-0.3-0.4-0.4-0.8-0.4-1.3c0-0.5,0.1-0.9,0.4-1.3c0.3-0.4,0.6-0.6,1.1-0.6h21.9c0.5,0,0.9,0.2,1.1,0.6
			c0.3,0.4,0.4,0.8,0.4,1.3c0,0.5-0.1,0.9-0.4,1.3c-0.3,0.4-0.6,0.6-1.1,0.6h-3.2v4.5h3.3c0.5,0,0.9,0.2,1.1,0.6
			c0.3,0.4,0.4,0.8,0.4,1.3c0,0.5-0.1,0.9-0.4,1.3c-0.3,0.4-0.6,0.6-1.1,0.6h-22.2c-0.5,0-0.9-0.2-1.1-0.6c-0.3-0.4-0.4-0.8-0.4-1.3
			c0-0.5,0.1-0.9,0.4-1.3c0.3-0.4,0.6-0.6,1.1-0.6h3.3V8.8z M498.6,25.1c1.2,0,2,0.2,2.5,0.7c0.5,0.4,0.7,1.3,0.7,2.4v2.6
			c0,1.2-0.2,2-0.7,2.4c-0.5,0.4-1.3,0.7-2.5,0.7h-15.3c-0.4,0-0.6,0.2-0.6,0.6V35c0,0.4,0.2,0.6,0.6,0.6H501c0.5,0,0.9,0.2,1.2,0.6
			c0.2,0.4,0.4,0.8,0.4,1.2c0,0.5-0.1,0.9-0.4,1.3c-0.3,0.4-0.6,0.5-1.2,0.5h-19.7c-1.2,0-2-0.2-2.5-0.7c-0.5-0.4-0.7-1.3-0.7-2.4
			v-2.6c0-1.2,0.2-2,0.7-2.4c0.5-0.5,1.3-0.7,2.5-0.7h15.3c0.4,0,0.6-0.2,0.6-0.6v-0.6c0-0.4-0.2-0.6-0.6-0.6h-17
			c-0.5,0-0.9-0.2-1.2-0.5c-0.2-0.4-0.4-0.8-0.4-1.3c0-0.4,0.1-0.9,0.4-1.2c0.3-0.4,0.6-0.6,1.2-0.6H498.6z M486.8,13.3h6.5V8.8
			h-6.5V13.3z"/>
		<path class="st6" d="M511.7,24.3c-1.2,0-2-0.2-2.5-0.7c-0.5-0.4-0.7-1.3-0.7-2.4v-4.8c0-1.2,0.2-2,0.7-2.4
			c0.5-0.5,1.3-0.7,2.5-0.7h5.1c0.6,0,0.9-0.3,0.9-0.9v-1.6c0-0.6-0.3-0.9-0.9-0.9h-6.7c-0.6,0-1-0.2-1.2-0.6
			c-0.2-0.4-0.4-0.9-0.4-1.4c0-0.5,0.1-1,0.4-1.4c0.2-0.4,0.7-0.6,1.2-0.6h8.9c1.2,0,2,0.2,2.5,0.7c0.5,0.5,0.7,1.3,0.7,2.4v4.8
			c0,1.2-0.2,2-0.7,2.4c-0.5,0.5-1.3,0.7-2.5,0.7H514c-0.6,0-0.9,0.3-0.9,0.9v1.6c0,0.6,0.3,0.9,0.9,0.9c1.4,0,2.8,0,4.2-0.1
			c1.5-0.1,2.8-0.2,4-0.4c0.6-0.1,1,0.1,1.3,0.4c0.3,0.3,0.5,0.8,0.6,1.3c0.1,0.6,0,1-0.2,1.5c-0.2,0.4-0.6,0.7-1.1,0.8
			c-0.8,0.1-2.1,0.2-3.9,0.4C517,24.3,514.6,24.3,511.7,24.3z M527.8,28.4c0,0.9,0.3,1.6,0.9,2.2c0.6,0.6,1.4,1.1,2.6,1.6
			c1.1,0.5,2.2,1,3.1,1.4c0.9,0.4,1.9,0.8,2.8,1.2c0.5,0.2,0.7,0.6,0.8,1.1c0.1,0.5,0,1-0.2,1.5c-0.2,0.5-0.6,0.9-1.1,1.1
			c-0.5,0.2-1,0.2-1.6,0c-0.8-0.3-1.5-0.6-2.3-0.9c-0.8-0.3-1.6-0.7-2.5-1.1c-0.9-0.4-1.7-0.8-2.3-1.2c-0.6-0.4-1.1-0.7-1.5-1
			c-0.4-0.3-0.7-0.6-0.8-0.8c-0.2-0.2-0.3-0.5-0.4-0.7h0c-0.1,0.3-0.2,0.5-0.4,0.8c-0.2,0.3-0.5,0.5-0.9,0.8c-0.4,0.3-0.9,0.6-1.5,1
			c-0.6,0.4-1.4,0.7-2.3,1.2c-0.9,0.4-1.7,0.8-2.5,1.1c-0.8,0.3-1.5,0.6-2.3,0.9c-0.6,0.2-1.1,0.2-1.6,0c-0.5-0.2-0.8-0.6-1.1-1.1
			c-0.2-0.5-0.3-1-0.2-1.6c0.1-0.5,0.4-0.9,0.8-1.1c1-0.4,1.9-0.8,2.9-1.2c0.9-0.4,2-0.9,3.1-1.4c1.1-0.5,2-1.1,2.6-1.6
			c0.6-0.6,0.9-1.3,0.9-2.2v-1c0-0.7,0.2-1.2,0.7-1.5c0.5-0.3,1-0.5,1.7-0.5c0.6,0,1.2,0.2,1.7,0.5c0.5,0.3,0.7,0.8,0.7,1.5V28.4z
			 M530.1,12.8h3V5.9c0-0.6,0.2-1.1,0.7-1.4c0.5-0.3,1-0.4,1.5-0.4c0.6,0,1.1,0.2,1.5,0.4c0.5,0.3,0.7,0.8,0.7,1.4v19.5
			c0,0.7-0.2,1.1-0.7,1.4c-0.4,0.3-1,0.4-1.5,0.4c-0.6,0-1.1-0.1-1.5-0.4c-0.4-0.3-0.7-0.8-0.7-1.4v-8.6h-3v5.5
			c0,0.7-0.2,1.1-0.7,1.4c-0.5,0.3-1,0.4-1.5,0.4c-0.5,0-1-0.1-1.5-0.4c-0.5-0.3-0.7-0.8-0.7-1.4V6.1c0-0.6,0.2-1.1,0.7-1.4
			c0.4-0.3,0.9-0.5,1.5-0.5c0.6,0,1.1,0.2,1.5,0.5c0.4,0.3,0.7,0.8,0.7,1.4V12.8z"/>
		<path class="st6" d="M542.9,24.9c-0.6,0-1-0.2-1.3-0.6c-0.3-0.4-0.4-0.9-0.4-1.4c0-0.5,0.1-1,0.4-1.4c0.3-0.4,0.7-0.6,1.3-0.6
			h11.8v-5h4.7v5h11.8c0.6,0,1,0.2,1.3,0.6c0.3,0.4,0.4,0.9,0.4,1.4c0,0.6-0.1,1-0.4,1.4c-0.3,0.4-0.7,0.6-1.3,0.6H542.9z
			 M546.1,18.2c-0.5,0-0.9-0.2-1.2-0.6c-0.3-0.4-0.4-0.8-0.4-1.3c0-0.5,0.1-0.9,0.4-1.3c0.3-0.4,0.7-0.6,1.2-0.6h3.3V9.2h-3.1
			c-0.5,0-0.9-0.2-1.2-0.6c-0.3-0.4-0.4-0.8-0.4-1.3c0-0.5,0.1-0.9,0.4-1.3c0.3-0.4,0.7-0.6,1.2-0.6H568c0.5,0,0.9,0.2,1.2,0.6
			c0.3,0.4,0.4,0.8,0.4,1.3c0,0.5-0.1,0.9-0.4,1.3c-0.3,0.4-0.7,0.6-1.2,0.6h-3.1v5.1h3.3c0.5,0,0.9,0.2,1.2,0.6
			c0.3,0.4,0.4,0.8,0.4,1.3c0,0.5-0.1,0.9-0.4,1.3c-0.3,0.4-0.7,0.6-1.2,0.6H546.1z M548.5,39c-1.2,0-2-0.2-2.5-0.7
			c-0.5-0.4-0.7-1.3-0.7-2.4V30c0-1.2,0.2-2,0.7-2.4c0.5-0.4,1.3-0.7,2.5-0.7h17.3c1.2,0,2,0.2,2.5,0.7c0.5,0.4,0.7,1.3,0.7,2.4v5.8
			c0,1.2-0.2,2-0.7,2.4c-0.5,0.4-1.3,0.7-2.5,0.7H548.5z M563.3,35.1c0.6,0,0.9-0.3,0.9-0.9v-2.5c0-0.6-0.3-0.9-0.9-0.9h-12.4
			c-0.6,0-0.9,0.3-0.9,0.9v2.5c0,0.6,0.3,0.9,0.9,0.9H563.3z M553.9,14.3h6.4V9.2h-6.4V14.3z"/>
	</g>
</g>
</svg>
