<svg xmlns="http://www.w3.org/2000/svg" viewBox="0 0 185 51" shape-rendering="geometricPrecision"><path d="M4.73 47.178l-2.102 3.295H.394L0 34h1.577c2.759 7.512 6.832 14.628 14.978 14.628 5.78 0 8.671-3.558 8.671-8.83 0-4.348-2.102-7.511-6.437-9.356-3.68-1.581-6.176-2.504-9.855-4.217-4.861-2.24-7.752-6.194-7.752-12.388C1.182 6.326 6.964.791 14.715.791c3.285 0 7.49 1.45 9.855 3.426l1.97-3.163h2.365l.394 16.078h-1.576C25.095 9.092 21.942 3.03 13.402 3.03c-1.84 0-6.57 1.713-6.57 7.248 0 4.349 1.84 6.72 5.781 9.093 3.154 1.845 6.438 2.768 9.329 4.217 5.255 2.636 9.197 5.535 9.197 12.783C31.139 44.938 24.7 51 16.029 51c-5.518-.395-9.328-2.109-11.3-3.822h.001zm27.986-13.573c0-8.698 5.518-16.737 14.32-16.737 6.57 0 9.855 3.822 9.855 8.17 0 2.373-1.314 3.954-3.548 3.954-1.313 0-3.81-.79-3.81-3.558 0-2.9.789-3.031.789-4.349-.395-2.108-1.314-2.504-3.416-2.504-3.81 0-7.358 3.69-7.358 14.365 0 8.566 3.022 14.496 8.54 14.496 4.336 0 6.964-2.24 8.934-6.326l1.446 1.054c-2.365 4.613-6.833 8.435-11.825 8.435-9.329 0-13.927-7.248-13.927-17zM62.278 4.48c0-2.373 1.84-4.481 4.204-4.481 2.628 0 4.336 1.845 4.336 4.217 0 2.504-1.84 4.612-4.336 4.612-2.365 0-4.204-1.976-4.204-4.348zm-3.022 43.751c1.051-.131 1.97-.263 2.89-.527 1.183-.395 1.709-1.713 1.709-3.162V24.248c-.132-1.45-.657-2.767-1.708-3.558-.789-.527-2.76-1.318-3.81-1.318v-1.318l11.43-.79.394.527v26.356c0 1.45.657 2.636 1.708 3.295.92.527 2.102.79 2.89.79v1.45H59.388v-1.45h-.131zm34.03-18.845c0-5.139-.92-10.806-5.387-10.806-3.81 0-6.57 4.35-6.701 11.07l12.088-.263zm-18.92 4.086c0-8.434 4.992-16.605 13.533-16.605 8.802 0 12.087 6.326 12.087 13.574v.659H81.198v.79c0 9.093 2.627 15.55 9.197 15.55 4.73 0 6.438-1.976 8.803-6.325l1.314.79c-2.234 5.009-6.57 8.567-11.825 8.567-9.723.132-14.321-7.643-14.321-17zm26.406 14.451c1.042-.13 1.953-.26 2.864-.521 1.172-.392 1.693-1.565 1.693-3.13V24.19c-.13-1.434-.651-2.869-1.693-3.651-.65-.522-2.083-1.043-3.124-1.174v-1.304l10.545-.782.52.521v4.695h.13c2.474-2.608 4.817-5.738 10.025-5.738 5.727 0 8.461 4.434 8.461 11.085v16.17c0 1.565.52 2.608 1.563 3.13.91.391 1.692.652 2.864.782v1.435h-15.362v-1.435c1.041-.13 2.083-.26 2.864-.521 1.172-.392 1.692-1.565 1.692-3.13V27.71c0-4.825-2.343-7.433-4.947-7.433-4.295 0-6.769 2.869-7.42 4.564v19.04c0 1.564.52 2.608 1.562 3.13.781.52 1.953.782 2.864.782v1.434h-15.231v-1.304h.13zm32.676-14.475c0-8.607 5.468-16.562 14.19-16.562 6.509 0 9.763 3.782 9.763 8.086 0 2.347-1.301 3.912-3.514 3.912-1.302 0-3.776-.783-3.776-3.521 0-2.869.781-3 .781-4.303-.39-2.087-1.302-2.478-3.384-2.478-3.776 0-7.29 3.651-7.29 14.214 0 8.476 2.993 14.345 8.461 14.345 4.296 0 6.9-2.217 8.853-6.26l1.432 1.043c-2.344 4.565-6.77 8.346-11.717 8.346-9.243 0-13.8-7.172-13.8-16.822zm44.392-4.173c0-5.086-.911-10.693-5.337-10.693-3.776 0-6.51 4.303-6.64 10.954l11.977-.26v-.001zm-18.746 4.043c0-8.346 4.947-16.432 13.409-16.432 8.722 0 11.976 6.26 11.976 13.432v.652h-18.616v.783c0 8.998 2.604 15.388 9.113 15.388 4.687 0 6.379-1.956 8.722-6.26l1.302.783c-2.213 4.955-6.51 8.476-11.716 8.476-9.764.13-14.19-7.563-14.19-16.822z"/></svg>